<?xml version="1.0" encoding="UTF-8" standalone="no"?>
<!-- Created with Inkscape (http://www.inkscape.org/) -->

<svg
   id="svg2"
   version="1.1"
   inkscape:version="1.2.2 (b0a8486, 2022-12-01)"
   width="2481"
   height="3503"
   sodipodi:docname="E38P05.svg"
   inkscape:export-filename="E38P05.png"
   inkscape:export-xdpi="96"
   inkscape:export-ydpi="96"
   xmlns:inkscape="http://www.inkscape.org/namespaces/inkscape"
   xmlns:sodipodi="http://sodipodi.sourceforge.net/DTD/sodipodi-0.dtd"
   xmlns:xlink="http://www.w3.org/1999/xlink"
   xmlns="http://www.w3.org/2000/svg"
   xmlns:svg="http://www.w3.org/2000/svg"
   xmlns:rdf="http://www.w3.org/1999/02/22-rdf-syntax-ns#"
   xmlns:cc="http://creativecommons.org/ns#"
   xmlns:dc="http://purl.org/dc/elements/1.1/">
  <metadata
     id="metadata8">
    <rdf:RDF>
      <cc:Work
         rdf:about="">
        <dc:format>image/svg+xml</dc:format>
        <dc:type
           rdf:resource="http://purl.org/dc/dcmitype/StillImage" />
        <dc:title />
      </cc:Work>
    </rdf:RDF>
  </metadata>
  <defs
     id="defs6">
    <filter
       inkscape:label="underwater"
       inkscape:menu="Distort"
       inkscape:menu-tooltip="Something like a water noise"
       height="1.0511301"
       y="-0.025565068"
       width="1.0310469"
       x="-0.015523466"
       style="color-interpolation-filters:sRGB"
       id="filter4172">
      <feTurbulence
         numOctaves="1"
         seed="196"
         type="fractalNoise"
         baseFrequency="0.017000000000000001"
         result="result1"
         id="feTurbulence4174" />
      <feGaussianBlur
         stdDeviation="2"
         result="result2"
         id="feGaussianBlur4176" />
      <feDisplacementMap
         scale="50"
         yChannelSelector="B"
         xChannelSelector="R"
         in="SourceGraphic"
         in2="result2"
         id="feDisplacementMap4178" />
    </filter>
  </defs>
  <sodipodi:namedview
     pagecolor="#ffffff"
     bordercolor="#666666"
     borderopacity="1"
     objecttolerance="10"
     gridtolerance="10"
     guidetolerance="10"
     inkscape:pageopacity="0"
     inkscape:pageshadow="2"
     inkscape:window-width="1440"
     inkscape:window-height="430"
     id="namedview4"
     showgrid="false"
     inkscape:zoom="0.529"
     inkscape:cx="1672.9679"
     inkscape:cy="693.76181"
     inkscape:window-x="93"
     inkscape:window-y="299"
     inkscape:window-maximized="0"
     inkscape:current-layer="layer1"
     inkscape:showpageshadow="0"
     inkscape:pagecheckerboard="0"
     inkscape:deskcolor="#d1d1d1" />
  <g
     inkscape:groupmode="layer"
     id="layer2"
     inkscape:label="artwork"
     sodipodi:insensitive="true">
    <image
       xlink:href="../gfx_Pepper-and-Carrot_by-David-Revoy_E38P05.png"
       y="0"
       x="0"
       id="image10"
       height="3503"
       width="2481" />
  </g>
  <g
     inkscape:groupmode="layer"
     id="layer3"
     inkscape:label="speechbubbles">
    <path
       style="color:#000000;display:inline;overflow:visible;visibility:visible;fill:#ffffff;fill-opacity:1;fill-rule:nonzero;stroke:none;stroke-width:0.99999px;marker:none;enable-background:accumulate"
       d="m 413.2248,861.85541 c -41.69798,-0.39133 -83.982,3.68408 -123.10524,16.27852 -15.91495,5.68774 -29.32341,17.62545 -32.58634,32.22598 -2.27165,14.18982 3.55421,29.4125 16.00369,39.29599 10.53282,7.71869 24.27811,11.03443 37.46017,14.03256 29.67296,6.12722 60.37571,6.58282 90.72962,7.42257 21.3201,0.44389 42.66987,1.02123 63.9818,0.18965 26.67178,-1.25412 53.53306,-4.01601 78.89668,-11.33492 13.66537,-3.97961 27.16018,-10.35159 35.14536,-20.85727 8.30256,-10.81583 10.12685,-25.38577 2.99509,-37.02396 -6.39421,-11.06531 -18.71342,-19.00579 -32.19222,-23.22021 -25.27779,-9.3576 -52.98751,-12.04706 -80.12737,-14.66739 -19.01674,-1.51389 -38.12048,-1.91463 -57.20124,-2.34152 z"
       id="path4040-4-4"
       inkscape:connector-curvature="0"
       sodipodi:nodetypes="zssssz" />
    <path
       style="fill:#ffffff;fill-rule:evenodd;stroke:none;stroke-width:0.999992px;stroke-linecap:butt;stroke-linejoin:miter;stroke-opacity:1"
       d="m 435.26341,563.21672 c 16.27678,-7.70306 54.74615,26.14786 39.58227,51.34243 -8.28227,13.76087 -48.97093,53.80439 -43.9925,66.35898 8.40555,21.19708 75.83803,24.06425 75.34563,52.97874 -1.26904,74.51888 -53.41279,72.33106 -59.81975,139.52761 -3.58819,37.63308 -34.40093,22.34932 -33.33057,3.73049 4.2792,-74.43645 66.79894,-75.39649 71.06678,-137.361 1.53877,-22.34137 -67.05507,-30.56749 -73.83163,-54.62707 -6.77656,-24.05958 42.65978,-65.6915 48.95364,-74.90388 19.06934,-27.91202 -17.29835,-49.15245 -23.97387,-47.0463 z"
       id="path4324-2"
       inkscape:connector-curvature="0"
       sodipodi:nodetypes="cssssssssc" />
    <path
       style="display:inline;fill:#ffffff;fill-opacity:1;stroke:none;stroke-width:0.999991"
       d="m 1196.6544,625.51532 c -46.4116,-0.44449 -93.0104,4.77227 -135.8588,20.20367 -45.9342,17.21023 -77.11354,62.35193 -79.60992,111.03199 -1.44767,26.09684 5.12325,53.70051 21.39112,75.88049 13.7082,18.55125 32.7064,32.89748 52.9452,43.84802 24.8276,13.32012 51.7462,21.91586 78.7984,28.41944 26.2475,6.13903 52.8568,10.18038 79.4825,12.65777 50.3129,4.17213 100.4472,1.70112 150.2553,-1.53212 35.2274,-3.53102 69.4088,-13.19668 100.5578,-28.33515 18.7597,-8.43608 37.4293,-18.3178 50.9554,-33.7499 15.6233,-17.1472 25.1021,-39.53822 26.9919,-63.03449 2.3582,-23.27877 -1.1412,-48.12875 -13.5224,-69.38667 -11.2823,-18.86911 -27.7657,-34.19466 -44.5047,-48.47463 -15.3145,-12.45719 -33.3858,-21.7632 -52.5244,-25.87571 -33.7187,-8.65875 -68.1614,-12.49669 -102.438,-15.91163 -44.3183,-4.04148 -88.6601,-5.19828 -132.9194,-5.74108 z"
       id="path3238-0"
       inkscape:connector-curvature="0"
       sodipodi:nodetypes="cssssc" />
    <path
       style="color:#000000;display:inline;overflow:visible;visibility:visible;fill:#ffffff;fill-opacity:1;fill-rule:nonzero;stroke:none;stroke-width:0.999996px;marker:none;enable-background:accumulate"
       d="m 1148.6419,509.92962 c -46.7972,0.23302 -94.0361,6.91259 -138.1168,24.81261 -23.08452,9.25073 -43.40723,28.17604 -53.61798,53.03997 -4.18925,10.55254 -3.4092,22.64185 -0.90706,33.57163 4.01616,19.25685 16.01614,35.92224 31.47746,45.68574 9.9195,6.47307 21.34458,9.1346 32.50078,11.69854 21.5853,4.48658 43.5863,5.71587 65.4902,6.74437 24.7303,1.04107 49.4888,1.68274 74.1545,4.04214 47.3042,3.71231 95.0488,6.46939 142.2345,-0.39796 31.9219,-4.24248 63.8579,-10.13143 94.4376,-21.33927 12.3783,-5.01913 23.185,-14.62578 30.4565,-26.73159 6.5874,-10.81062 9.4837,-24.15057 8.215,-37.08249 -1.5828,-19.02165 -10.8861,-37.05529 -24.955,-48.23051 -14.4123,-12.26074 -31.1725,-20.81411 -48.4156,-27.00832 -22.3978,-7.69969 -45.9237,-9.86872 -69.2219,-11.43138 -47.8332,-3.92125 -95.7416,-7.49363 -143.7322,-7.37348 z"
       id="path3365-74"
       inkscape:connector-curvature="0"
       sodipodi:nodetypes="csssssc" />
    <path
       style="color:#000000;display:inline;overflow:visible;visibility:visible;fill:#ffffff;fill-opacity:1;fill-rule:nonzero;stroke:none;stroke-width:1.09674px;marker:none;enable-background:accumulate"
       d="m 1092.3968,293.65113 c -33.8506,0.93987 -68.3339,4.51533 -99.80936,17.59944 -34.73708,14.4923 -65.24183,39.99918 -82.99957,73.03922 -15.12065,29.76914 -15.63319,65.5988 -4.13157,96.62618 7.87697,22.393 23.16248,42.41724 43.63213,55.04911 18.74778,12.04546 41.00155,17.68567 63.12947,19.39223 22.967,1.97055 46.05,1.01828 69.0606,2.03177 40.9612,1.15851 81.8784,3.46386 122.8345,4.74588 30.4692,0.83922 61.0619,0.95337 91.4007,-2.28611 30.3305,-4.77047 58.8329,-16.74151 86.5707,-29.28436 21.5674,-10.72485 40.1524,-27.9035 50.7067,-49.47684 11.4135,-21.635 16.6509,-47.10542 11.3408,-71.17722 -5.0018,-19.9218 -18.0181,-36.85647 -32.9052,-50.76511 -29.4759,-28.28339 -67.7063,-47.94576 -108.4843,-54.08035 -21.7565,-3.45622 -43.7988,-4.50779 -65.7274,-6.40058 -47.6893,-3.41772 -95.5104,-5.15201 -143.3256,-5.04318 -0.4309,0.01 -0.8617,0.02 -1.2926,0.0298 z"
       id="path4546-6-3"
       inkscape:connector-curvature="0"
       sodipodi:nodetypes="cssssssc" />
    <path
       style="fill:#ffffff;fill-rule:evenodd;stroke:none;stroke-width:0.999999px;stroke-linecap:butt;stroke-linejoin:miter;stroke-opacity:1"
       d="m 1097.2088,1498.1612 c -50.1074,232.9948 317.2826,138.0065 348.2465,127.5914 25.2848,-6.3546 42.8921,-91.6966 9.8197,-155.958 -17.4489,-37.4489 -309.4186,-95.437 -358.0662,28.3666 z"
       id="path4430-0"
       inkscape:connector-curvature="0"
       sodipodi:nodetypes="cccc" />
    <path
       style="fill:#ffffff;fill-rule:evenodd;stroke:none;stroke-width:0.999998px;stroke-linecap:butt;stroke-linejoin:miter;stroke-opacity:1"
       d="m 1665.3875,867.24265 c -47.6883,36.63018 -121.3078,34.71042 -164.497,-19.84273 -42.9447,-54.24437 -27.7187,24.61422 -27.7187,24.61422 0,0 103.5598,86.80674 192.2157,-4.77149 z"
       id="path914"
       inkscape:connector-curvature="0"
       sodipodi:nodetypes="cscc" />
    <path
       style="color:#000000;display:inline;overflow:visible;visibility:visible;fill:#ffffff;fill-opacity:1;fill-rule:nonzero;stroke:none;stroke-width:1.31805px;marker:none;enable-background:accumulate"
       d="m 1339.0908,1623.6002 c -58.6804,0.6432 -117.9182,5.3078 -173.7688,19.3417 -39.056,9.7676 -75.767,27.1326 -99.7864,52.4586 -25.4822,27.233 -35.8918,61.293 -33.0035,94.1839 2.4111,29.4407 21.0757,58.4647 52.5086,76.7436 24.6399,13.8157 54.5232,21.0144 84.1737,26.3118 39.5562,6.6184 79.9915,9.485 120.2296,12.7288 62.4515,3.8167 125.1516,1.7667 187.7156,1.469 31.0345,-0.4597 62.1379,-0.3069 93.0804,-2.3641 47.6638,-3.7771 94.4812,-13.221 138.3732,-27.5357 24.6554,-8.7241 46.3447,-23.2221 57.4651,-42.0359 11.3144,-18.6609 13.191,-39.6411 11.0884,-59.8189 -2.2808,-25.2618 -10.4975,-50.8193 -29.1653,-72.267 -18.4601,-21.3177 -46.6932,-37.2631 -77.8665,-47.0566 -50.5455,-16.2262 -105.7263,-21.5491 -160.0486,-25.5549 -55.8598,-4.0596 -111.9624,-6.5582 -168.0983,-6.6296 -0.9657,0.01 -1.9314,0.017 -2.8972,0.026 z"
       id="path4546-6-5-3"
       inkscape:connector-curvature="0"
       sodipodi:nodetypes="cssssc" />
    <path
       style="color:#000000;display:inline;overflow:visible;visibility:visible;fill:#ffffff;fill-opacity:1;fill-rule:nonzero;stroke:none;stroke-width:1px;marker:none;enable-background:accumulate"
       d="m 1734.4698,1831.6628 c 62.1287,15.8148 150.4475,-33.6088 136.8651,-118.9732 -8.8478,92.8343 -96.9988,91.9805 -130.0298,76.4776 -19.3706,-12.294 -6.8353,42.4956 -6.8353,42.4956 z"
       id="path3978-4"
       inkscape:connector-curvature="0"
       sodipodi:nodetypes="cccc" />
    <path
       style="display:inline;fill:#ffffff;stroke:none;stroke-width:1"
       d="m 917.38033,2397.4226 c -5.2069,-10.7866 -17.1717,-15.0052 -25.6304,-13.039 -8.45839,1.9675 -11.4441,2.5263 -18.2896,8.7513 -6.8457,6.2252 -25.67917,11.3207 -33.31721,7.9632 -7.63783,-3.3561 -47.89164,-12.1144 -47.89164,-12.1144 0,0 20.67765,21.3567 29.65507,27.1533 8.97867,5.7973 6.3573,2.1556 10.75117,3.341 4.39314,1.1846 20.97342,-0.094 30.05862,-2.4708 7.13511,-1.8659 16.12447,-3.9027 23.29985,-12.6861 4.76574,-5.8354 18.47194,-4.2799 21.40374,4.5948 3.2536,9.8488 10.0144,11.0209 24.9122,8.2211 13.8184,-2.5977 34.3544,-11.9913 34.3544,-11.9913 -47.4943,6.1566 -43.47,4.3673 -49.3062,-7.7231 z"
       id="path3023-0"
       inkscape:connector-curvature="0"
       sodipodi:nodetypes="sssscsssssscs" />
    <path
       id="path3549-3-8"
       style="color:#000000;display:inline;overflow:visible;visibility:visible;fill:#ffffff;fill-opacity:1;fill-rule:nonzero;stroke:none;stroke-width:1px;marker:none;enable-background:accumulate;opacity:1"
       d="M 102.15625 2217.2109 L 102.15625 2478.543 C 145.9925 2472.706 160.94567 2488.6872 139.18945 2531.1875 C 197.21049 2465.1315 224.23694 2527.4578 222.31055 2568.6289 C 255.71026 2500.4131 304.96137 2507.443 326.14453 2587.5938 C 360.93641 2473.267 399.07113 2504.0873 434.1875 2560.6914 C 420.777 2505.1483 437.56327 2438.6418 497.66211 2517.5801 C 467.09516 2450.9428 485.45202 2429.6849 507.51562 2420.8828 L 507.51562 2378.793 C 499.91039 2359.7846 497.68349 2335.7155 507.51562 2313.5098 L 507.51562 2217.2109 L 102.15625 2217.2109 z " />
    <path
       style="fill:#ffffff;fill-rule:evenodd;stroke:none;stroke-width:0.999998px;stroke-linecap:butt;stroke-linejoin:miter;stroke-opacity:1"
       d="m 614.98881,2331.2948 c 6.57512,-4.5025 30.9863,6.1034 47.23431,-14.5751 16.19068,-5.8238 33.06234,8.5107 49.40116,1.3841 14.33141,-9.4751 32.46796,-10.8364 45.27819,1.061 14.36386,11.2529 34.42337,-0.9091 49.44359,7.0829 6.24188,10.2604 6.48874,24.2764 25.17031,26.9861 20.09836,6.5494 -1.65107,22.3736 -0.26812,33.4774 1.29355,11.641 17.1596,30.782 -7.21514,34.0234 -16.96883,3.6696 -17.31233,19.095 -31.90536,26.234 -11.7402,6.8974 -35.28869,-4.7334 -52.1666,2.2019 -13.26157,2.3364 -24.06652,16.2037 -32.02042,2.0306 -13.94698,-10.4421 -35.59419,-14.7145 -53.8245,-9.226 -18.76606,-1.2476 -17.91699,-24.2238 -38.31236,-23.6428 -19.06357,0.857 -30.24122,-11.0952 -21.50112,-24.5407 4.04556,-12.2665 -22.30758,-21.9987 -7.48377,-32.292 14.25762,-6.1411 16.87054,-24.2606 28.16983,-30.2048 z"
       id="path16024"
       sodipodi:nodetypes="cccccccccccccccc" />
    <path
       style="color:#000000;display:inline;overflow:visible;visibility:visible;fill:#ffffff;fill-opacity:1;fill-rule:nonzero;stroke:none;stroke-width:1px;marker:none;enable-background:accumulate"
       d="m 2087.9681,3285.9397 c 0.5382,-35.4026 11.0244,-68.8822 103.9813,-67.7236 69.6996,0.8683 88.2609,28.1452 89.8052,63.9302 1.0883,25.2186 -36.6197,48.5616 -96.5036,47.3246 -57.2375,-1.1819 -93.0971,-16.5325 -97.2829,-43.5312 z"
       id="path5026-3"
       inkscape:connector-curvature="0"
       sodipodi:nodetypes="csssc" />
    <path
       style="display:inline;fill:#ffffff;fill-rule:evenodd;stroke:none;stroke-width:1px;stroke-linecap:butt;stroke-linejoin:miter;stroke-opacity:1"
       d="m 2216.2701,3274.5534 c -61.8984,-21.049 28.9638,-64.9043 19.6446,-80.7113 -6.8485,-11.6163 -47.2918,2.0303 -76.0255,-47.5276 36.5257,35.7762 71.9507,15.1139 89.789,28.9312 33.8795,26.2412 -13.779,72.8752 -16.93,82.2108 -4.2143,12.4859 -16.4781,17.0969 -16.4781,17.0969 z"
       id="path4186-80"
       inkscape:connector-curvature="0"
       sodipodi:nodetypes="cscssc" />
    <path
       style="display:inline;fill:#ffffff;stroke:none;stroke-width:1.07328"
       d="m 137.10503,197.02745 c -0.64794,-16.53428 20.26534,-62.27919 109.90058,-57.01611 89.63525,5.26308 117.29632,24.09797 119.25373,53.50769 3.09663,46.52623 -44.38174,57.79921 -112.22716,59.61049 -69.94138,1.86792 -113.10204,-14.27969 -116.92715,-56.10207 z"
       id="path3280-9"
       inkscape:connector-curvature="0"
       sodipodi:nodetypes="csssc" />
    <path
       style="color:#000000;display:inline;overflow:visible;visibility:visible;fill:#ffffff;fill-opacity:1;fill-rule:nonzero;stroke:none;stroke-width:1px;marker:none;enable-background:accumulate"
       d="m 243.93137,340.60992 c -25.02662,-22.16944 -37.57619,-65.64997 -6.57569,-106.68443 31.00051,-41.03445 15.89917,-51.35957 15.89917,-51.35957 l -32.36315,12.91552 c 0,0 -47.82019,105.74427 23.03967,145.12848 z"
       id="path3072-6"
       inkscape:connector-curvature="0"
       sodipodi:nodetypes="csccc" />
    <path
       style="fill:#ffffff;stroke:none;stroke-width:1.20571"
       d="m 953.98559,259.61165 c -1.06346,-49.31229 30.6906,-60.38495 62.91471,-67.32626 32.2239,-6.94013 132.3721,0.75255 125.0154,61.09627 -7.3567,60.34256 -55.8123,68.70534 -95.8476,66.03787 -40.0354,-2.66747 -86.27333,-13.08297 -92.08251,-59.80788 z"
       id="path3938-8-5"
       inkscape:connector-curvature="0"
       sodipodi:nodetypes="csssc" />
  </g>
  <g
     inkscape:groupmode="layer"
     id="layer1"
     inkscape:label="txt">
    <text
       id="text4178-0-7"
       y="210.26805"
       x="250.5466"
       style="font-style:normal;font-variant:normal;font-weight:normal;font-stretch:normal;line-height:0%;font-family:ComicSpice;-inkscape-font-specification:ComicSpice;text-align:center;letter-spacing:0px;word-spacing:0px;text-anchor:middle;fill:#000000;fill-opacity:1;stroke:none"
       xml:space="preserve"><tspan
         y="210.26805"
         x="250.5466"
         style="font-style:normal;font-variant:normal;font-weight:normal;font-stretch:normal;font-size:40.6767px;line-height:1.25;font-family:ComicSpice;-inkscape-font-specification:ComicSpice"
         sodipodi:role="line"
         id="tspan13656-7">Cái đó là hết.</tspan></text>
    <text
       id="text4178-0"
       y="927.02161"
       x="423.54248"
       style="font-style:normal;font-variant:normal;font-weight:normal;font-stretch:normal;font-size:11.3747px;line-height:0%;font-family:ComicSpice;-inkscape-font-specification:ComicSpice;text-align:center;letter-spacing:0px;word-spacing:0px;text-anchor:middle;fill:#000000;fill-opacity:1;stroke:none;stroke-width:1"
       xml:space="preserve"><tspan
         y="927.02161"
         x="423.54248"
         style="font-size:38.5572px;line-height:1.25;stroke-width:1;-inkscape-font-specification:ComicSpice;font-family:ComicSpice;font-weight:normal;font-style:normal;font-stretch:normal;font-variant:normal"
         sodipodi:role="line"
         id="tspan463">Còn gì nữa không?</tspan></text>
    <text
       id="text4178-0-7-3"
       y="273.96155"
       x="1024.7422"
       style="font-style:normal;font-variant:normal;font-weight:bold;font-stretch:normal;font-size:14.0366px;line-height:0%;font-family:ComicSpice;-inkscape-font-specification:'ComicSpice Bold';text-align:center;letter-spacing:0px;word-spacing:0px;text-anchor:middle;fill:#000000;fill-opacity:1;stroke:none;stroke-width:1"
       xml:space="preserve"
       transform="scale(1.0254518,0.97517992)"><tspan
         y="273.96155"
         x="1024.7422"
         style="font-style:normal;font-variant:normal;font-weight:bold;font-stretch:normal;font-size:47.5802px;line-height:1.25;font-family:ComicSpice;-inkscape-font-specification:'ComicSpice Bold';stroke-width:1"
         sodipodi:role="line"
         id="tspan13656-7-6">Phải rồi.</tspan></text>
    <text
       id="text4178-0-3"
       y="354.85971"
       x="1161.1416"
       style="font-style:normal;font-variant:normal;font-weight:normal;font-stretch:normal;line-height:0%;font-family:ComicSpice;-inkscape-font-specification:ComicSpice;text-align:center;letter-spacing:0px;word-spacing:0px;text-anchor:middle;fill:#000000;fill-opacity:1;stroke:none"
       xml:space="preserve"><tspan
         y="354.85971"
         x="1161.1416"
         style="font-style:normal;font-variant:normal;font-weight:normal;font-stretch:normal;font-size:40.6767px;line-height:1.25;font-family:ComicSpice;-inkscape-font-specification:ComicSpice"
         sodipodi:role="line"
         id="tspan557">Rất bình thường cho</tspan><tspan
         y="405.7056"
         x="1161.1416"
         style="font-style:normal;font-variant:normal;font-weight:normal;font-stretch:normal;font-size:40.6767px;line-height:1.25;font-family:ComicSpice;-inkscape-font-specification:ComicSpice"
         sodipodi:role="line"
         id="tspan2724">phù thủy Chao Sa có mặt</tspan><tspan
         y="456.55145"
         x="1161.1416"
         style="font-style:normal;font-variant:normal;font-weight:normal;font-stretch:normal;font-size:40.6767px;line-height:1.25;font-family:ComicSpice;-inkscape-font-specification:ComicSpice"
         sodipodi:role="line"
         id="tspan2726">trên áp phích truy nã được</tspan><tspan
         y="507.39734"
         x="1161.1416"
         style="font-style:normal;font-variant:normal;font-weight:normal;font-stretch:normal;font-size:40.6767px;line-height:1.25;font-family:ComicSpice;-inkscape-font-specification:ComicSpice"
         sodipodi:role="line"
         id="tspan2728">dán khắp phương trời.</tspan></text>
    <text
       id="text4178-0-3-7"
       y="586.37183"
       x="1194.0856"
       style="font-style:normal;font-variant:normal;font-weight:normal;font-stretch:normal;line-height:0%;font-family:ComicSpice;-inkscape-font-specification:ComicSpice;text-align:center;letter-spacing:0px;word-spacing:0px;text-anchor:middle;fill:#000000;fill-opacity:1;stroke:none"
       xml:space="preserve"><tspan
         y="586.37183"
         x="1194.0856"
         style="font-style:normal;font-variant:normal;font-weight:normal;font-stretch:normal;font-size:40.6767px;line-height:1.25;font-family:ComicSpice;-inkscape-font-specification:ComicSpice"
         sodipodi:role="line"
         id="tspan563">Đó là dấu hiệu của</tspan><tspan
         y="637.21771"
         x="1194.0856"
         style="font-style:normal;font-variant:normal;font-weight:normal;font-stretch:normal;font-size:40.6767px;line-height:1.25;font-family:ComicSpice;-inkscape-font-specification:ComicSpice"
         sodipodi:role="line"
         id="tspan2716">danh dự tốt đẹp phải không.</tspan></text>
    <text
       id="text4178-0-3-7-4"
       y="709.26703"
       x="1263.552"
       style="font-style:normal;font-variant:normal;font-weight:normal;font-stretch:normal;line-height:0%;font-family:ComicSpice;-inkscape-font-specification:ComicSpice;text-align:center;letter-spacing:0px;word-spacing:0px;text-anchor:middle;fill:#000000;fill-opacity:1;stroke:none"
       xml:space="preserve"><tspan
         y="709.26703"
         x="1263.552"
         style="font-style:normal;font-variant:normal;font-weight:normal;font-stretch:normal;font-size:40.6767px;line-height:1.25;font-family:ComicSpice;-inkscape-font-specification:ComicSpice"
         sodipodi:role="line"
         id="tspan662">Không chú ý các người</tspan><tspan
         y="760.11292"
         x="1263.552"
         style="font-style:normal;font-variant:normal;font-weight:normal;font-stretch:normal;font-size:40.6767px;line-height:1.25;font-family:ComicSpice;-inkscape-font-specification:ComicSpice"
         sodipodi:role="line"
         id="tspan2739">bác bỏ ý kiến: nên tự sang chế</tspan><tspan
         y="810.9588"
         x="1263.552"
         style="font-style:normal;font-variant:normal;font-weight:normal;font-stretch:normal;font-size:40.6767px;line-height:1.25;font-family:ComicSpice;-inkscape-font-specification:ComicSpice"
         sodipodi:role="line"
         id="tspan2741">sự nghiệp mình nếu không</tspan><tspan
         y="861.80463"
         x="1263.552"
         style="font-style:normal;font-variant:normal;font-weight:normal;font-stretch:normal;font-size:40.6767px;line-height:1.25;font-family:ComicSpice;-inkscape-font-specification:ComicSpice"
         sodipodi:role="line"
         id="tspan2743">có ai thuê .</tspan></text>
    <text
       id="text4178-0-3-7-4-4-9"
       y="1500.6082"
       x="1291.115"
       style="font-style:normal;font-variant:normal;font-weight:bold;font-stretch:normal;font-size:13.0616px;line-height:0%;font-family:ComicSpice;-inkscape-font-specification:'ComicSpice Bold';text-align:center;letter-spacing:0px;word-spacing:0px;text-anchor:middle;fill:#000000;fill-opacity:1;stroke:none;stroke-width:1"
       xml:space="preserve"><tspan
         y="1500.6082"
         x="1291.115"
         style="font-style:normal;font-variant:normal;font-weight:bold;font-stretch:normal;font-size:44.2754px;line-height:1.25;font-family:ComicSpice;-inkscape-font-specification:'ComicSpice Bold';stroke-width:1"
         sodipodi:role="line"
         id="tspan14405">Trên hết:</tspan><tspan
         y="1555.9524"
         x="1291.115"
         style="font-style:normal;font-variant:normal;font-weight:bold;font-stretch:normal;font-size:44.2754px;line-height:1.25;font-family:ComicSpice;-inkscape-font-specification:'ComicSpice Bold';stroke-width:1"
         sodipodi:role="line"
         id="tspan982">mày không phải</tspan><tspan
         y="1611.2966"
         x="1291.115"
         style="font-style:normal;font-variant:normal;font-weight:bold;font-stretch:normal;font-size:44.2754px;line-height:1.25;font-family:ComicSpice;-inkscape-font-specification:'ComicSpice Bold';stroke-width:1"
         sodipodi:role="line"
         id="tspan2712">là thầy thuốc.</tspan></text>
    <text
       id="text4178-0-3-7-4-6"
       y="1697.0682"
       x="1407.6429"
       style="font-style:normal;font-variant:normal;font-weight:normal;font-stretch:normal;line-height:0%;font-family:ComicSpice;-inkscape-font-specification:ComicSpice;text-align:center;letter-spacing:0px;word-spacing:0px;text-anchor:middle;fill:#000000;fill-opacity:1;stroke:none;stroke-width:1.4;stroke-dasharray:none"
       xml:space="preserve"><tspan
         y="1697.0682"
         x="1407.6429"
         style="font-style:normal;font-variant:normal;font-weight:normal;font-stretch:normal;font-size:40.6767px;line-height:1.25;font-family:ComicSpice;-inkscape-font-specification:ComicSpice;stroke-width:1.4;stroke-dasharray:none"
         sodipodi:role="line"
         id="tspan1088">Trước sau họ sẽ biết,</tspan><tspan
         y="1747.9141"
         x="1407.6429"
         style="font-style:normal;font-variant:normal;font-weight:normal;font-stretch:normal;font-size:40.6767px;line-height:1.25;font-family:ComicSpice;-inkscape-font-specification:ComicSpice;stroke-width:1.4;stroke-dasharray:none"
         sodipodi:role="line"
         id="tspan1100">sau mày đã sử dụng hết lượng lớn nước mắt</tspan><tspan
         y="1798.76"
         x="1407.6429"
         style="font-style:normal;font-variant:normal;font-weight:normal;font-stretch:normal;font-size:40.6767px;line-height:1.25;font-family:ComicSpice;-inkscape-font-specification:ComicSpice;stroke-width:1.4;stroke-dasharray:none"
         sodipodi:role="line"
         id="tspan1094">của chim <tspan
   style="font-style:normal;font-variant:normal;font-weight:bold;font-stretch:normal;font-family:ComicSpice;-inkscape-font-specification:'ComicSpice Bold'"
   id="tspan3099">Hỏa Tái Sinh</tspan> mày đang xách theo, </tspan><tspan
         y="1849.6058"
         x="1407.6429"
         style="font-style:normal;font-variant:normal;font-weight:normal;font-stretch:normal;font-size:40.6767px;line-height:1.25;font-family:ComicSpice;-inkscape-font-specification:ComicSpice;stroke-width:1.4;stroke-dasharray:none"
         sodipodi:role="line"
         id="tspan1096"> và giả bộ có mày có năng lực điều trị.</tspan></text>
    <text
       id="text4178-0-3-7-4-4-9-8"
       y="2304.5208"
       x="299.76089"
       style="font-style:normal;font-variant:normal;font-weight:bold;font-stretch:normal;font-size:19.6833px;line-height:0%;font-family:ComicSpice;-inkscape-font-specification:'ComicSpice Bold';text-align:center;letter-spacing:0px;word-spacing:0px;text-anchor:middle;fill:#000000;fill-opacity:1;stroke:none;stroke-width:1"
       xml:space="preserve"><tspan
         y="2304.5208"
         x="299.76089"
         style="font-style:normal;font-variant:normal;font-weight:bold;font-stretch:normal;font-size:66.7212px;line-height:1.25;font-family:ComicSpice;-inkscape-font-specification:'ComicSpice Bold';stroke-width:1"
         sodipodi:role="line"
         id="tspan14981">Cái... ?</tspan></text>
    <text
       id="text4178-0-3-7-4-4-9-8-2"
       y="2390.5906"
       x="304.07828"
       style="font-style:normal;font-variant:normal;font-weight:bold;font-stretch:normal;font-size:17.9224px;line-height:0%;font-family:ComicSpice;-inkscape-font-specification:'ComicSpice Bold';text-align:center;letter-spacing:0px;word-spacing:0px;text-anchor:middle;fill:#000000;fill-opacity:1;stroke:none;stroke-width:1"
       xml:space="preserve"><tspan
         y="2390.5906"
         x="304.07828"
         style="font-style:normal;font-variant:normal;font-weight:bold;font-stretch:normal;font-size:60.7521px;line-height:1.25;font-family:ComicSpice;-inkscape-font-specification:'ComicSpice Bold';stroke-width:1"
         sodipodi:role="line"
         id="tspan1834">Sao cô biết...</tspan></text>
    <text
       id="text4178-0-3-7-4-6-2"
       y="2380.6519"
       x="721.09253"
       style="font-style:normal;font-variant:normal;font-weight:normal;font-stretch:normal;font-size:13.0698px;line-height:0%;font-family:ComicSpice;-inkscape-font-specification:ComicSpice;text-align:center;letter-spacing:0px;word-spacing:0px;text-anchor:middle;fill:#000000;fill-opacity:1;stroke:none;stroke-width:0.999999"
       xml:space="preserve"
       transform="scale(0.99716257,1.0028455)"><tspan
         y="2380.6519"
         x="721.09253"
         style="font-style:normal;font-variant:normal;font-weight:normal;font-stretch:normal;font-size:44.303px;line-height:1.25;font-family:ComicSpice;-inkscape-font-specification:ComicSpice;stroke-width:0.999999"
         sodipodi:role="line"
         id="tspan14909-4">...đoán đi.</tspan></text>
    <text
       id="text4178-0-3-7-4-6-2-9"
       y="3394.865"
       x="2115.7561"
       style="font-style:normal;font-variant:normal;font-weight:normal;font-stretch:normal;font-size:15.5528px;line-height:0%;font-family:ComicSpice;-inkscape-font-specification:ComicSpice;text-align:center;letter-spacing:0px;word-spacing:0px;text-anchor:middle;fill:#000000;fill-opacity:1;stroke:none;stroke-width:1"
       xml:space="preserve"
       transform="scale(1.0311049,0.96983341)"><tspan
         y="3394.865"
         x="2115.7561"
         style="font-style:normal;font-variant:normal;font-weight:normal;font-stretch:normal;font-size:52.7197px;line-height:1.25;font-family:ComicSpice;-inkscape-font-specification:ComicSpice;stroke-width:1"
         sodipodi:role="line"
         id="tspan14909-4-0">Hừ!</tspan></text>
  </g>
</svg>
