<?xml version="1.0" encoding="UTF-8" standalone="no"?>
<!-- Created with Inkscape (http://www.inkscape.org/) -->

<svg
   id="svg2"
   version="1.1"
   inkscape:version="1.2.2 (b0a8486, 2022-12-01)"
   width="2481"
   height="3503"
   sodipodi:docname="E38P01.svg"
   inkscape:export-filename="E38P01.png"
   inkscape:export-xdpi="96"
   inkscape:export-ydpi="96"
   xmlns:inkscape="http://www.inkscape.org/namespaces/inkscape"
   xmlns:sodipodi="http://sodipodi.sourceforge.net/DTD/sodipodi-0.dtd"
   xmlns:xlink="http://www.w3.org/1999/xlink"
   xmlns="http://www.w3.org/2000/svg"
   xmlns:svg="http://www.w3.org/2000/svg"
   xmlns:rdf="http://www.w3.org/1999/02/22-rdf-syntax-ns#"
   xmlns:cc="http://creativecommons.org/ns#"
   xmlns:dc="http://purl.org/dc/elements/1.1/">
  <metadata
     id="metadata8">
    <rdf:RDF>
      <cc:Work
         rdf:about="">
        <dc:format>image/svg+xml</dc:format>
        <dc:type
           rdf:resource="http://purl.org/dc/dcmitype/StillImage" />
        <dc:title />
      </cc:Work>
    </rdf:RDF>
  </metadata>
  <defs
     id="defs6" />
  <sodipodi:namedview
     pagecolor="#ffffff"
     bordercolor="#666666"
     borderopacity="1"
     objecttolerance="10"
     gridtolerance="10"
     guidetolerance="10"
     inkscape:pageopacity="0"
     inkscape:pageshadow="2"
     inkscape:window-width="1440"
     inkscape:window-height="430"
     id="namedview4"
     showgrid="false"
     inkscape:zoom="0.6996025"
     inkscape:cx="1635.2143"
     inkscape:cy="3213.2532"
     inkscape:window-x="0"
     inkscape:window-y="23"
     inkscape:window-maximized="0"
     inkscape:current-layer="layer1"
     inkscape:showpageshadow="0"
     inkscape:pagecheckerboard="0"
     inkscape:deskcolor="#d1d1d1" />
  <g
     inkscape:groupmode="layer"
     id="layer2"
     inkscape:label="artwork"
     sodipodi:insensitive="true">
    <image
       xlink:href="../gfx_Pepper-and-Carrot_by-David-Revoy_E38P01.png"
       y="0"
       x="0"
       id="image10"
       height="3503"
       width="2481" />
  </g>
  <g
     inkscape:groupmode="layer"
     id="layer3"
     inkscape:label="speechbubbles">
    <path
       style="display:inline;fill:#ffffff;fill-rule:evenodd;stroke:none;stroke-width:1.12191px;stroke-linecap:butt;stroke-linejoin:miter;stroke-opacity:1"
       d="m 1915.8814,2823.7857 c 13.1131,-12.8494 21.6278,-27.8094 10.4423,-35.4155 l -2.6457,-4.8919 -35.7582,-57.5913 c 40.0976,13.0979 83.062,29.9281 57.3794,-42.602 37.6515,36.1281 68.4386,54.2583 72.6892,2.8147 15.4149,22.851 30.316,58.9265 47.553,34.8767 7.7688,11.7728 15.0718,7.0951 21.8867,-14.8154 10.1762,26.8604 25.7461,10.2614 42.8404,-18.6212 16.2037,29.3239 33.3829,53.6416 63.2281,12.9665 -2.5456,30.1977 14.5828,28.6932 40.6037,12.8595 -3.004,13.1355 1.9783,17.445 33.3376,6.6788 -7.4956,12.7517 -21.3897,13.9903 12.3133,16.3815 -2.9254,12.4157 -23.8346,22.5757 17.6617,40.5624 -41.4767,-4.6132 -10.5266,17.4098 -8.7685,28.697 -27.0124,-6.5408 -38.9991,-3.4934 -10.0101,25.7006 -13.7689,-0.3509 -52.7373,-32.2377 -32.6366,9.7978 -23.028,-23.4746 -44.1937,5.2194 -32.1151,6.2019 l -49.1944,8.8413 -78.7436,-7.3731 -55.5732,0.4398 -46.1987,5.5096 c 6.0626,-18.4296 -9.4829,-11.9095 -21.7999,-9.117 -4.174,-5.389 4.2487,-18.4753 -22.3866,-10.1391 0.3578,-13.3273 -12.7681,-11.5415 -24.1048,-11.7616 z"
       id="path1058"
       sodipodi:nodetypes="ccccccccccccccccccccccccc" />
    <path
       style="display:inline;fill:#ffffff;fill-rule:evenodd;stroke:none;stroke-width:1.0363px;stroke-linecap:butt;stroke-linejoin:miter;stroke-opacity:1"
       d="m 1891.7552,2881.9016 c 39.8391,0.989 34.5607,19.2729 20.2138,41.0332 11.0369,-1.4637 36.85,-21.6208 21.544,10.2427 33.4208,-11.5762 12.8311,11.8461 10.1154,23.6235 13.472,-2.4791 21.719,8.1884 5.3339,47.8657 16.5455,-9.3375 41.8292,-44.3941 39.9448,0.5153 13.3947,-5.5744 30.9935,-27.0525 33.2272,9.5925 17.7062,-18.0907 41.6293,-33.5248 42.0723,23.2317 9.2182,-48.5852 43.4469,-64.2556 48.3689,5.4977 6.6245,-63.3416 36.8625,-43.2596 56.5614,3.0753 -5.7508,-36.7036 2.9794,-59.474 67.4236,-28.6397 -0.4675,-32.3136 12.98,-46.7689 66.7211,-9.5099 -11.422,-21.5065 -39.0368,-55.7472 25.2475,-17.7186 -33.8086,-45.7833 -12.7607,-62.6137 15.3903,-92.9428 -34.2784,21.1501 -24.4068,-9.8481 -11.4918,-33.9813 -42.2843,10.6029 -50.9243,-9.8615 -18.5874,-39.9569 -48.9595,12.5578 -47.7564,-4.8349 -38.1874,-19.8372 -70.941,29.642 -41.3538,-17.2736 -34.8032,-35.5619 -51.3895,82.1646 -36.2804,31.4281 -30.6077,-0.4489 -29.1745,48.9759 -42.1544,40.6136 -36.5874,-7.551 l -57.8597,33.0035 -140.3007,25.4123 c -21.052,25.4747 -27.1262,21.3633 -71.1342,27.4011 58.3287,14.315 23.9828,30.6926 -12.6047,35.6537 z"
       id="path961"
       sodipodi:nodetypes="cccccccccccccccccccccccc" />
    <path
       style="display:inline;fill:#ffffff;fill-rule:evenodd;stroke:none;stroke-width:0.954738px;stroke-linecap:butt;stroke-linejoin:miter;stroke-opacity:1"
       d="m 2000.6694,2716.7252 c -31.651,13.0747 -66.0394,18.8224 -102.4949,19.037 l 17.6113,45.3908 c -18.364,3.6732 -29.918,0.9666 -70.6388,2.2181 l 6.282,21.8742 -102.3938,-5.104 121.1041,21.825 -4.8924,-18.0382 86.3709,-1.8936 -21.7145,-39.3473 c 30.9126,-19.0725 69.7849,-11.308 104.7266,-16.7953 z"
       id="path957"
       sodipodi:nodetypes="cccccccccccc" />
    <path
       style="color:#000000;display:inline;overflow:visible;visibility:visible;fill:#ffffff;fill-opacity:1;fill-rule:nonzero;stroke:none;stroke-width:0.999995px;marker:none;enable-background:accumulate"
       d="m 154.18291,2746.3221 c 12.36192,-16.9283 38.3645,-31.1634 72.46639,-36.9339 34.10182,-5.7713 97.1903,-4.2327 108.27341,-2.3084 11.08308,1.9235 72.04008,8.8486 85.25453,18.467 13.2146,9.6175 31.11795,21.5442 34.95442,33.8558 3.83653,12.3116 0.42629,41.9355 -11.93563,48.4757 -12.36191,6.5403 -68.62992,20.7754 -101.45306,21.5451 -32.823,0.7689 -109.12586,-5.3865 -130.86583,-9.6184 -21.73989,-4.2318 -44.75869,-9.6183 -51.57895,-23.0836 -6.82041,-13.4654 -19.60863,-31.1634 -5.11528,-50.3993 z"
       id="path3533-6"
       inkscape:connector-curvature="0" />
    <path
       style="color:#000000;display:inline;overflow:visible;visibility:visible;fill:#ffffff;fill-opacity:1;fill-rule:nonzero;stroke:none;stroke-width:1px;marker:none;enable-background:accumulate"
       d="m 449.68921,2694.176 c -5.4692,18.044 -36.31667,19.557 -47.67251,15.89 22.89062,20.186 22.09264,32.728 -8.98652,34.675 52.12022,36.381 9.5283,30.876 1.12737,40.101 40.92404,12.538 22.61417,28.141 15.32823,43.674 47.03817,0.534 31.64473,25.433 33.62731,45.263 3.98771,-9.305 22.93203,-37.635 24.07187,-6.092 31.11301,-30.093 68.58777,-49.532 71.56343,3.132 12.53592,-26.494 25.03422,-37.691 24.07196,-6.092 31.06008,-41.099 58.97184,-26.305 87.04913,-14.689 7.37431,-12.405 8.23362,-31.462 32.09131,-26.996 -3.34509,-12.295 4.71021,-20.747 22.90194,-25.766 -24.17387,-7.427 -28.62902,-15.088 16.25642,-23.332 -34.15525,-0.798 -66.00523,-2.432 -25.93368,-30.547 -12.57158,-0.681 -42.39883,22.78 -28.49222,-45.878 -21.61743,21.98 -44.68133,34.111 -73.60556,-11.931 -13.68835,23.002 -37.43051,34.384 -47.75962,5.653 -3.71242,12.248 -19.10628,16.855 -32.17455,17.413 -5.05353,-4.865 -10.26568,-11.473 -15.70469,-20.131 -8.88976,18.179 -22.18782,30.457 -47.75962,5.653 z"
       id="path3549-3-7-3"
       inkscape:connector-curvature="0"
       sodipodi:nodetypes="cccccccccccccccccccc" />
    <path
       style="fill:#ffffff;stroke:none;stroke-width:0.999987"
       d="m 630.35038,2847.8624 c -6.18297,-41.564 12.47702,-88.7068 25.89185,-103.5788 13.41484,-14.8722 37.42815,-24.0661 59.73171,-32.6 18.4762,-7.0706 100.69495,-6.8273 159.07275,-5.8452 48.89807,0.8231 101.29359,27.5396 113.15512,70.201 11.86149,42.6599 8.34071,118.828 -6.15421,143.6879 -14.4948,24.8609 -28.74593,51.8242 -113.62133,61.6411 -84.87544,9.8156 -190.05517,-5.7495 -215.08573,-55.786 -14.11076,-28.2083 -22.99016,-77.72 -22.99016,-77.72 z"
       id="path3286-6"
       inkscape:connector-curvature="0"
       sodipodi:nodetypes="csssssssc" />
    <path
       style="display:inline;fill:#ffffff;fill-rule:evenodd;stroke:none;stroke-width:1px;stroke-linecap:butt;stroke-linejoin:miter;stroke-opacity:1"
       d="m 770.17916,2905.8157 c -37.0534,20.4212 33.28706,75.895 22.46288,93.9658 -7.4722,12.4745 -47.82201,-4.0185 -75.22579,52.2357 35.72049,-40.0521 72.16531,-14.9218 89.72928,-30.2585 33.3584,-29.127 -11.25452,-70.4044 -14.74009,-81.3044 -4.66176,-14.5778 -22.22628,-34.6386 -22.22628,-34.6386 z"
       id="path4186-80"
       inkscape:connector-curvature="0"
       sodipodi:nodetypes="cscssc" />
    <path
       style="fill:#ffffff;stroke:none;stroke-width:0.999993"
       d="m 1731.427,1829.8608 c -4.941,-33.4036 9.9702,-71.2905 20.6904,-83.2427 10.7197,-11.9521 29.9091,-19.3409 47.7321,-26.1993 14.7642,-5.6824 80.466,-5.4868 127.1162,-4.6978 39.0748,0.6616 80.9444,22.1326 90.4231,56.4181 9.4787,34.2843 6.6652,95.4979 -4.9177,115.4769 -11.5831,19.9799 -22.9712,41.6494 -90.7958,49.5389 -67.8245,7.8884 -151.8747,-4.6207 -171.8767,-44.8332 -11.2761,-22.6701 -18.3716,-62.4609 -18.3716,-62.4609 z"
       id="path3286-6-3"
       inkscape:connector-curvature="0"
       sodipodi:nodetypes="csssssssc" />
    <path
       style="fill:#ffffff;stroke:none;stroke-width:1.04746"
       d="m 1750.8715,1692.3594 c -3.8704,-14.4312 8.7149,-30.5858 17.6631,-35.6193 8.9482,-5.0335 24.8744,-8.0145 39.6668,-10.7814 12.2539,-2.2924 66.6173,-1.524 105.2129,-0.6985 32.328,0.6917 66.8329,10.3707 74.4524,25.2288 7.6197,14.8577 4.8923,41.1799 -4.8223,49.6599 -9.7146,8.4806 -19.279,17.6903 -75.4519,20.3804 -56.1727,2.6895 -125.6382,-3.5708 -141.9268,-21.0902 -9.1826,-9.8764 -14.7942,-27.0797 -14.7942,-27.0797 z"
       id="path3286-6-3-2"
       inkscape:connector-curvature="0"
       sodipodi:nodetypes="csssssssc" />
    <path
       style="color:#000000;display:inline;overflow:visible;visibility:visible;fill:#ffffff;fill-opacity:1;fill-rule:nonzero;stroke:none;stroke-width:1.176px;marker:none;enable-background:accumulate"
       d="m 1760.1714,2335.0153 c -2.1987,-14.4836 31.8236,-78.8761 165.958,-69.2201 134.1344,9.6559 153.2123,44.1745 154.5492,76.1883 -2.3177,32.9908 -29.2104,57.061 -49.0007,61.8893 -19.7903,4.8276 -49.5374,11.5288 -104.4491,12.5521 -63.4387,0.043 -100.836,-1.9822 -141.0064,-28.279 -38.3177,-23.3248 -23.852,-49.2684 -26.051,-53.1306 z"
       id="path3365-7"
       inkscape:connector-curvature="0"
       sodipodi:nodetypes="cscsccc" />
    <path
       style="fill:#ffffff;stroke:none;stroke-width:1.02124"
       d="m 1871.9103,2038.6335 c -38.2464,0.3008 -76.4913,10.8384 -107.203,30.4854 -18.1722,12.239 -32.4828,29.6912 -36.0391,49.5546 -2.8713,14.5821 -2.9293,29.4172 -4.2183,44.1312 -1.4734,27.0319 1.5696,54.6377 12.8003,80.0861 12.6282,26.1384 41.2257,46.3112 73.8767,51.0654 26.4214,4.6474 53.5474,4.0721 80.2657,6.5735 42.416,2.8829 85.1719,4.375 127.5769,0.5432 33.0133,-2.1665 66.6358,-3.9086 98.1408,-13.3629 22.9481,-7.4002 44.541,-20.0603 57.1217,-38.4749 12.3303,-17.9988 15.7949,-39.2679 16.0988,-59.8283 0.9325,-26.6561 -2.6687,-54.079 -16.0969,-78.416 -13.3321,-21.498 -36.8702,-37.1813 -62.5585,-46.8142 -39.9123,-15.4903 -83.3912,-24.6545 -127.2917,-25.0643 -34.3261,-0.8966 -68.6713,-0.1149 -103.0046,-0.4793 -3.1562,-0.011 -6.3125,-0.011 -9.4688,5e-4 z"
       id="path3280-8-0-3"
       inkscape:connector-curvature="0"
       sodipodi:nodetypes="csssc" />
    <path
       style="color:#000000;display:inline;overflow:visible;visibility:visible;fill:#ffffff;fill-opacity:1;fill-rule:nonzero;stroke:none;stroke-width:1px;marker:none;enable-background:accumulate"
       d="m 2043.5678,2501.161 c -35.0529,-23.7474 -46.172,-34.2743 -37.5356,-84.9721 8.6364,-50.6978 -9.5224,-52.9142 -9.5224,-52.9142 l -22.7877,26.3611 c 0,0 -11.1894,109.1725 69.8457,111.5252 z"
       id="path3072-6"
       inkscape:connector-curvature="0" />
    <path
       style="color:#000000;display:inline;overflow:visible;visibility:visible;fill:#ffffff;fill-opacity:1;fill-rule:nonzero;stroke:none;stroke-width:1px;marker:none;enable-background:accumulate"
       d="m 2005.9605,1984.9453 c -38.4707,-17.6819 -51.1646,-26.2444 -50.9531,-77.6721 0.2114,-51.4277 -18.0652,-50.6383 -18.0652,-50.6383 l -18.1596,29.7391 c 0,0 6.8528,109.5303 87.1779,98.5713 z"
       id="path3072-6-3"
       inkscape:connector-curvature="0" />
  </g>
  <g
     inkscape:groupmode="layer"
     id="layer1"
     inkscape:label="txt">
    <text
       id="text4178-3"
       y="1703.0369"
       x="1796.0411"
       style="font-style:normal;font-variant:normal;font-weight:normal;font-stretch:normal;line-height:0%;font-family:ComicSpice;-inkscape-font-specification:ComicSpice;text-align:start;letter-spacing:0px;word-spacing:0px;text-anchor:start;fill:#000000;fill-opacity:1;stroke:none"
       xml:space="preserve"><tspan
         y="1703.0369"
         x="1796.0411"
         style="font-style:normal;font-variant:normal;font-weight:normal;font-stretch:normal;font-size:40.6767px;line-height:1.25;font-family:ComicSpice;-inkscape-font-specification:ComicSpice;text-align:start;text-anchor:start"
         sodipodi:role="line"
         id="tspan646">Cuối cùng...</tspan></text>
    <text
       id="text4178-3-36"
       y="1792.8582"
       x="1879.2559"
       style="font-style:normal;font-variant:normal;font-weight:normal;font-stretch:normal;line-height:0%;font-family:ComicSpice;-inkscape-font-specification:ComicSpice;text-align:start;letter-spacing:0px;word-spacing:0px;text-anchor:start;fill:#000000;fill-opacity:1;stroke:none"
       xml:space="preserve"><tspan
         y="1792.8582"
         x="1879.2559"
         style="font-style:normal;font-variant:normal;font-weight:normal;font-stretch:normal;font-size:40.6767px;line-height:1.25;font-family:ComicSpice;-inkscape-font-specification:ComicSpice;text-align:center;text-anchor:middle"
         sodipodi:role="line"
         id="tspan575">Chúng tôi đã hủy</tspan><tspan
         y="1843.704"
         x="1879.2559"
         style="font-style:normal;font-variant:normal;font-weight:normal;font-stretch:normal;font-size:40.6767px;line-height:1.25;font-family:ComicSpice;-inkscape-font-specification:ComicSpice;text-align:center;text-anchor:middle"
         sodipodi:role="line"
         id="tspan636">diệt con bù kẹp</tspan><tspan
         y="1894.5499"
         x="1879.2559"
         style="font-style:normal;font-variant:normal;font-weight:normal;font-stretch:normal;font-size:40.6767px;line-height:1.25;font-family:ComicSpice;-inkscape-font-specification:ComicSpice;text-align:center;text-anchor:middle"
         sodipodi:role="line"
         id="tspan577">khổng lộ này!</tspan></text>
    <text
       id="text4178-3-3"
       y="2111.8545"
       x="1955.0306"
       style="font-style:normal;font-variant:normal;font-weight:normal;font-stretch:normal;line-height:0%;font-family:ComicSpice;-inkscape-font-specification:ComicSpice;text-align:start;letter-spacing:0px;word-spacing:0px;text-anchor:start;fill:#000000;fill-opacity:1;stroke:none"
       xml:space="preserve"><tspan
         y="2111.8545"
         x="1955.0306"
         style="font-style:normal;font-variant:normal;font-weight:normal;font-stretch:normal;font-size:40.6767px;line-height:1.25;font-family:ComicSpice;-inkscape-font-specification:ComicSpice;text-align:center;text-anchor:middle"
         sodipodi:role="line"
         id="tspan509">Công việc rất khó khăn.</tspan><tspan
         y="2162.7004"
         x="1955.0306"
         style="font-style:normal;font-variant:normal;font-weight:normal;font-stretch:normal;font-size:40.6767px;line-height:1.25;font-family:ComicSpice;-inkscape-font-specification:ComicSpice;text-align:center;text-anchor:middle"
         sodipodi:role="line"
         id="tspan643"> Bây giờ chúng tôi hiểu vì</tspan><tspan
         y="2213.5461"
         x="1955.0306"
         style="font-style:normal;font-variant:normal;font-weight:normal;font-stretch:normal;font-size:40.6767px;line-height:1.25;font-family:ComicSpice;-inkscape-font-specification:ComicSpice;text-align:center;text-anchor:middle"
         sodipodi:role="line"
         id="tspan645">sao nhiều phiêu lưu gia</tspan><tspan
         y="2264.3921"
         x="1955.0306"
         style="font-style:normal;font-variant:normal;font-weight:normal;font-stretch:normal;font-size:40.6767px;line-height:1.25;font-family:ComicSpice;-inkscape-font-specification:ComicSpice;text-align:center;text-anchor:middle"
         sodipodi:role="line"
         id="tspan653">bị mắc kẹt ở đây.</tspan></text>
    <text
       id="text4178-3-3-8"
       y="2359.2256"
       x="1791.5929"
       style="font-style:normal;font-variant:normal;font-weight:normal;font-stretch:normal;line-height:0%;font-family:ComicSpice;-inkscape-font-specification:ComicSpice;text-align:start;letter-spacing:0px;word-spacing:0px;text-anchor:start;fill:#000000;fill-opacity:1;stroke:none"
       xml:space="preserve"><tspan
         y="2359.2256"
         x="1791.5929"
         style="font-style:normal;font-variant:normal;font-weight:normal;font-stretch:normal;font-size:40.6767px;line-height:1.25;font-family:ComicSpice;-inkscape-font-specification:ComicSpice;text-align:start;text-anchor:start"
         sodipodi:role="line"
         id="tspan875-2">Ba Xích sao rồi?</tspan></text>
    <text
       id="text4178-3-3-8-3"
       y="2788.842"
       x="209.46754"
       style="font-style:normal;font-variant:normal;font-weight:bold;font-stretch:normal;font-size:16.0044px;line-height:0%;font-family:ComicSpice;-inkscape-font-specification:'ComicSpice Bold';text-align:start;letter-spacing:0px;word-spacing:0px;text-anchor:start;fill:#000000;fill-opacity:1;stroke:none;stroke-width:1"
       xml:space="preserve"><tspan
         y="2788.842"
         x="209.46754"
         style="font-style:normal;font-variant:normal;font-weight:bold;font-stretch:normal;font-size:54.2508px;line-height:1.25;font-family:ComicSpice;-inkscape-font-specification:'ComicSpice Bold';text-align:start;text-anchor:start;stroke-width:1"
         sodipodi:role="line"
         id="tspan875-2-7">Ba Xích?   Ba Xích! </tspan></text>
    <text
       id="text4178-3-3-8-5"
       y="2786.1531"
       x="819.88513"
       style="font-style:normal;font-variant:normal;font-weight:normal;font-stretch:normal;font-size:12.743px;line-height:0%;font-family:ComicSpice;-inkscape-font-specification:ComicSpice;text-align:start;letter-spacing:0px;word-spacing:0px;text-anchor:start;fill:#000000;fill-opacity:1;stroke:none;stroke-width:1"
       xml:space="preserve"><tspan
         y="2786.1531"
         x="819.88513"
         style="font-style:normal;font-variant:normal;font-weight:normal;font-stretch:normal;font-size:43.1951px;line-height:1.25;font-family:ComicSpice;-inkscape-font-specification:ComicSpice;text-align:center;text-anchor:middle;stroke-width:1"
         sodipodi:role="line"
         id="tspan454">Chán! Tôi không </tspan><tspan
         y="2840.147"
         x="819.88513"
         style="font-style:normal;font-variant:normal;font-weight:normal;font-stretch:normal;font-size:43.1951px;line-height:1.25;font-family:ComicSpice;-inkscape-font-specification:ComicSpice;text-align:center;text-anchor:middle;stroke-width:1"
         sodipodi:role="line"
         id="tspan545">chú ý bạn đã bị</tspan><tspan
         y="2894.1409"
         x="819.88513"
         style="font-style:normal;font-variant:normal;font-weight:normal;font-stretch:normal;font-size:43.1951px;line-height:1.25;font-family:ComicSpice;-inkscape-font-specification:ComicSpice;text-align:center;text-anchor:middle;stroke-width:1"
         sodipodi:role="line"
         id="tspan547">thương nặng</tspan><tspan
         y="2948.1348"
         x="819.88513"
         style="font-style:normal;font-variant:normal;font-weight:normal;font-stretch:normal;font-size:43.1951px;line-height:1.25;font-family:ComicSpice;-inkscape-font-specification:ComicSpice;text-align:center;text-anchor:middle;stroke-width:1"
         sodipodi:role="line"
         id="tspan549">đến vậy!</tspan></text>
    <text
       id="text4178-3-3-8-3-2"
       y="2801.0317"
       x="1958.5537"
       style="font-style:normal;font-variant:normal;font-weight:normal;font-stretch:normal;font-size:17.5168px;line-height:0%;font-family:ComicSpice;-inkscape-font-specification:ComicSpice;text-align:start;letter-spacing:0px;word-spacing:0px;text-anchor:start;fill:#000000;fill-opacity:1;stroke:none;stroke-width:1"
       xml:space="preserve"><tspan
         y="2801.0317"
         x="1958.5537"
         style="font-style:normal;font-variant:normal;font-weight:normal;font-stretch:normal;font-size:59.3774px;line-height:1.25;font-family:ComicSpice;-inkscape-font-specification:ComicSpice;text-align:start;text-anchor:start;stroke-width:1"
         sodipodi:role="line"
         id="tspan706">Thầy thuốc!!!</tspan></text>
    <text
       id="text4178-3-3-8-3-2-9"
       y="2893.6733"
       x="2125.4182"
       style="font-style:normal;font-variant:normal;font-weight:normal;font-stretch:normal;font-size:15.6623px;line-height:0%;font-family:ComicSpice;-inkscape-font-specification:ComicSpice;text-align:start;letter-spacing:0px;word-spacing:0px;text-anchor:start;fill:#000000;fill-opacity:1;stroke:none;stroke-width:1"
       xml:space="preserve"><tspan
         y="2893.6733"
         x="2125.4182"
         style="font-style:normal;font-variant:normal;font-weight:normal;font-stretch:normal;font-size:53.0911px;line-height:1.25;font-family:ComicSpice;-inkscape-font-specification:ComicSpice;text-align:center;text-anchor:middle;stroke-width:1"
         sodipodi:role="line"
         id="tspan747">Chúng cần sự giúp</tspan><tspan
         y="2960.0371"
         x="2125.4182"
         style="font-style:normal;font-variant:normal;font-weight:normal;font-stretch:normal;font-size:53.0911px;line-height:1.25;font-family:ComicSpice;-inkscape-font-specification:ComicSpice;text-align:center;text-anchor:middle;stroke-width:1"
         sodipodi:role="line"
         id="tspan712">đở của em, LẸ!</tspan></text>
    <text
       xml:space="preserve"
       style="font-style:normal;font-variant:normal;font-weight:normal;font-stretch:normal;font-size:40px;line-height:normal;font-family:ComicSpice;-inkscape-font-specification:ComicSpice;text-align:center;text-decoration-color:#000000;text-anchor:middle;fill:#90ad5f;stroke-width:1.5;stroke-linecap:round;stroke-linejoin:round;-inkscape-stroke:none;stop-color:#000000"
       x="1881.0682"
       y="1649.5081"
       id="text581"><tspan
         sodipodi:role="line"
         id="tspan579" /></text>
  </g>
</svg>
