<?xml version="1.0" encoding="UTF-8" standalone="no"?>
<!-- Created with Inkscape (http://www.inkscape.org/) -->

<svg
   id="svg2"
   version="1.1"
   inkscape:version="1.2.2 (b0a8486, 2022-12-01)"
   width="2481"
   height="3503"
   sodipodi:docname="E38P03.svg"
   inkscape:export-filename="E38P03.png"
   inkscape:export-xdpi="96"
   inkscape:export-ydpi="96"
   xmlns:inkscape="http://www.inkscape.org/namespaces/inkscape"
   xmlns:sodipodi="http://sodipodi.sourceforge.net/DTD/sodipodi-0.dtd"
   xmlns:xlink="http://www.w3.org/1999/xlink"
   xmlns="http://www.w3.org/2000/svg"
   xmlns:svg="http://www.w3.org/2000/svg"
   xmlns:rdf="http://www.w3.org/1999/02/22-rdf-syntax-ns#"
   xmlns:cc="http://creativecommons.org/ns#"
   xmlns:dc="http://purl.org/dc/elements/1.1/">
  <metadata
     id="metadata8">
    <rdf:RDF>
      <cc:Work
         rdf:about="">
        <dc:format>image/svg+xml</dc:format>
        <dc:type
           rdf:resource="http://purl.org/dc/dcmitype/StillImage" />
        <dc:title />
      </cc:Work>
    </rdf:RDF>
  </metadata>
  <defs
     id="defs6" />
  <sodipodi:namedview
     pagecolor="#ffffff"
     bordercolor="#666666"
     borderopacity="1"
     objecttolerance="10"
     gridtolerance="10"
     guidetolerance="10"
     inkscape:pageopacity="0"
     inkscape:pageshadow="2"
     inkscape:window-width="1440"
     inkscape:window-height="430"
     id="namedview4"
     showgrid="false"
     inkscape:zoom="0.60835002"
     inkscape:cx="1073.3952"
     inkscape:cy="3205.3915"
     inkscape:window-x="0"
     inkscape:window-y="23"
     inkscape:window-maximized="0"
     inkscape:current-layer="layer3"
     inkscape:showpageshadow="0"
     inkscape:pagecheckerboard="0"
     inkscape:deskcolor="#d1d1d1" />
  <g
     inkscape:groupmode="layer"
     id="layer2"
     inkscape:label="artwork"
     sodipodi:insensitive="true">
    <image
       xlink:href="../gfx_Pepper-and-Carrot_by-David-Revoy_E38P03.png"
       y="0"
       x="0"
       id="image10"
       height="3503"
       width="2481" />
  </g>
  <g
     inkscape:groupmode="layer"
     id="layer3"
     inkscape:label="speechbubbles">
    <circle
       style="fill:#ffffff;stroke-width:1.5;stroke-linecap:round;stroke-linejoin:round;-inkscape-stroke:none;stop-color:#000000"
       id="path310"
       cx="1308.4573"
       cy="2252.8149"
       r="13.972219" />
    <circle
       style="fill:#ffffff;stroke-width:0.926473;stroke-linecap:round;stroke-linejoin:round;-inkscape-stroke:none;stop-color:#000000"
       id="circle393"
       cx="1369.6885"
       cy="2273.7732"
       r="8.6299" />
    <circle
       style="fill:#ffffff;stroke-width:1.19118;stroke-linecap:round;stroke-linejoin:round;-inkscape-stroke:none;stop-color:#000000"
       id="circle449"
       cx="1340.1002"
       cy="2270.4858"
       r="11.095586" />
    <path
       style="fill:#ffffff;stroke:none;stroke-width:1.5;stroke-linecap:round;stroke-linejoin:round;-inkscape-stroke:none;stop-color:#000000"
       d="m 1202.1921,2137.9319 c -10.9057,-2.4232 -23.8105,14.5114 -12.9097,21.187 -15.3376,-0.077 -16.144,11.4384 -9.0408,19.7254 -4.9308,8.3226 -3.1333,12.5754 0.8219,18.9036 -7.0422,12.8056 1.8668,24.2679 15.6987,16.3382 5.5126,7.2653 13.0651,16.7955 22.9304,7.4968 5.1865,12.4831 22.3354,17.5978 35.6676,6.1166 17.4004,12.9278 32.3593,3.5574 39.9467,-5.2947 10.0806,2.8146 12.0583,2.2607 16.7783,-1.7848 13.9897,9.9416 37.9043,-3.95 26.7822,-18.7626 9.6076,4.2508 16.0443,-4.2677 12.3284,-11.5065 16.9942,-10.4069 7.7977,-29.8645 -9.8627,-27.9445 1.3531,-13.0431 -2.3407,-19.0772 -12.5692,-17.9407 -3.7454,-11.5215 -13.8932,-14.0117 -23.8349,-9.0408 -2.6317,-15.0637 -23.7429,-16.0462 -34.2789,-7.0153 -8.1956,-9.711 -23.053,-2.7194 -30.4101,9.34 -8.7254,-16.995 -33.0241,-14.1753 -38.0479,0.1823 z"
       id="path705"
       sodipodi:nodetypes="ccccccccccccccccc" />
    <circle
       style="fill:#ffffff;stroke:none;stroke-width:1.5;stroke-linecap:round;stroke-linejoin:round;-inkscape-stroke:none;stop-color:#000000"
       id="path992"
       cx="932.0293"
       cy="3234.9797"
       r="4.9313717" />
    <circle
       style="fill:#ffffff;stroke:none;stroke-width:2.125;stroke-linecap:round;stroke-linejoin:round;-inkscape-stroke:none;stop-color:#000000"
       id="circle994"
       cx="910.24896"
       cy="3232.103"
       r="6.9861097" />
    <circle
       style="fill:#ffffff;stroke:none;stroke-width:3;stroke-linecap:round;stroke-linejoin:round;-inkscape-stroke:none;stop-color:#000000"
       id="circle996"
       cx="884.35919"
       cy="3217.72"
       r="9.8627434" />
    <path
       style="fill:#ffffff;stroke:none;stroke-width:1.5;stroke-linecap:round;stroke-linejoin:round;-inkscape-stroke:none;stop-color:#000000"
       d="m 840.79886,3199.0631 c 4.22369,4.8036 14.9115,8.9235 24.65685,-0.8219 10.60999,6.0949 15.9104,8.4363 23.83497,1.6438 14.52341,3.8821 23.64744,2.0188 29.58823,-9.8627 23.844,3.0034 35.54311,-3.9387 33.6977,-20.5475 16.98767,0.096 7.99648,-23.458 -4.10947,-31.232 11.58053,-15.9107 -2.63476,-46.5157 -24.65686,-38.629 -8.52879,-15.6687 -29.02595,-5.5308 -34.5196,-0.8219 -9.57562,-24.5711 -28.75295,-26.3308 -50.13562,-13.1503 -14.82743,1.409 -21.78306,-2.7072 -28.76633,9.8627 -3.88236,-23.6879 -32.97201,-17.097 -48.49182,-7.3971 -12.00073,-9.8654 -19.20089,-7.2596 -29.58823,1.6438 -17.81329,-7.7107 -28.53288,5.4079 -32.87581,18.9037 -16.90225,-8.3034 -27.81547,-0.5804 -31.23202,14.7941 -15.12515,10.0694 -14.40153,18.653 -1.6438,29.5882 -11.34121,10.0919 -11.07457,25.94 9.04086,30.4101 -4.87251,17.7236 10.30175,24.3824 23.01307,16.4378 5.86292,9.0864 12.71219,7.6162 19.72548,4.1095 18.34953,11.2967 28.80309,15.2931 40.27287,10e-5 16.10425,7.7836 28.98836,10.0006 37.80718,-4.1095 19.30836,13.0632 31.52907,5.6047 44.38235,-0.8219 z"
       id="path1108"
       sodipodi:nodetypes="ccccccccccccccccccccc" />
    <path
       style="color:#000000;display:inline;overflow:visible;visibility:visible;fill:#ffffff;fill-opacity:1;fill-rule:nonzero;stroke:none;stroke-width:0.735209px;marker:none;enable-background:accumulate"
       d="m 1982.7326,2604.0478 c -33.6371,0.4334 -67.6629,2.0404 -99.9247,8.3374 -13.6887,2.931 -24.6693,9.0484 -35.2587,14.9434 -7.9932,4.5835 -15.5576,10.0551 -17.9022,16.8262 -3.2949,9.3489 -2.6532,19.0389 -0.7875,28.4766 1.5921,6.7364 5.7321,13.2858 12.587,18.6412 9.279,7.5234 22.6798,12.787 37.044,15.8023 24.5576,5.7678 50.7248,9.1163 77.0377,9.0546 17.0205,0.045 34.0413,-0.5938 51.0589,-0.1403 21.1874,0.2744 42.5788,0.679 63.5173,-1.7379 18.3719,-2.0245 36.3737,-5.4471 53.3195,-10.2966 12.0282,-3.6581 22.8446,-9.2121 29.4388,-16.5276 12.5759,-13.3356 12.9819,-30.8185 0.4955,-44.2377 -10.2197,-11.4813 -27.2399,-20.1903 -46.1605,-25.7908 -19.6605,-5.9459 -41.3412,-8.742 -62.9511,-10.2678 -20.3983,-1.6657 -40.9002,-3.2342 -61.514,-3.083 z"
       id="path4040-4-5-3"
       inkscape:connector-curvature="0"
       sodipodi:nodetypes="zssssz" />
    <path
       style="color:#000000;display:inline;overflow:visible;visibility:visible;fill:#ffffff;fill-opacity:1;fill-rule:nonzero;stroke:none;stroke-width:0.973798px;marker:none;enable-background:accumulate"
       d="m 2121.1226,2706.9685 c -49.5032,0.64 -99.4701,0.8637 -148.1105,8.843 -22.2277,3.8849 -43.0669,13.9743 -55.2815,29.009 -18.2363,21.7981 -19.9874,50.9024 -5.2445,74.1361 8.5938,14.1475 23.0288,26.0154 40.4468,33.9483 13.0696,6.3794 27.9241,10.6639 43.3481,11.9154 38.8171,4.3304 78.0225,7.0956 117.2776,6.5032 29.6982,-0.4296 59.4225,-2.4774 88.5785,-6.9242 21.4333,-3.544 42.8196,-10.0817 58.6595,-22.1129 12.2504,-9.2249 20.361,-21.6387 22.4998,-34.7456 2.2377,-11.3173 3.0218,-22.815 2.4431,-34.2513 -0.7845,-11.9637 -4.7817,-24.0783 -13.8733,-33.9545 -8.3893,-9.4457 -20.9649,-16.2196 -34.5234,-20.6275 -19.4881,-6.4234 -40.7229,-8.6916 -61.6542,-10.3351 -18.1363,-1.2774 -36.3649,-1.4903 -54.566,-1.4039 z"
       id="path3365-33"
       inkscape:connector-curvature="0"
       sodipodi:nodetypes="csssssc" />
    <path
       style="color:#000000;display:inline;overflow:visible;visibility:visible;fill:#ffffff;fill-opacity:1;fill-rule:nonzero;stroke:none;stroke-width:0.999999px;marker:none;enable-background:accumulate"
       d="m 1263.1642,1831.4688 c -42.5257,-42.2705 -19.5395,-108.0364 17.6028,-114.3414 51.4374,-8.7316 -11.3103,20.5827 -11.3103,20.5827 0,0 -37.0509,43.6527 -6.2925,93.7587 z"
       id="path5002-7"
       inkscape:connector-curvature="0"
       sodipodi:nodetypes="cscc" />
    <path
       style="color:#000000;display:inline;overflow:visible;visibility:visible;fill:#ffffff;fill-opacity:1;fill-rule:nonzero;stroke:none;stroke-width:1px;marker:none;enable-background:accumulate"
       d="m 1916.9709,2636.425 c -77.3885,-61.1144 -158.5933,-65.3254 -208.3967,7.4705 60.8364,-52.278 143.8743,-25.5157 174.2291,8.7518 16.5264,23.0336 34.1676,-16.2223 34.1676,-16.2223 z"
       id="path3978-4"
       inkscape:connector-curvature="0"
       sodipodi:nodetypes="cccc" />
    <path
       style="fill:#ffffff;fill-rule:evenodd;stroke:none;stroke-width:0.999997px;stroke-linecap:butt;stroke-linejoin:miter;stroke-opacity:1"
       d="m 1571.1,1438.6662 c 1.0295,-18.6517 13.3828,-52.846 31.913,-59.0632 18.53,-6.2173 70.0024,-6.2173 80.2969,-3.1082 10.2946,3.1082 26.7657,25.9044 30.8835,35.2307 4.1179,9.3254 15.4418,42.4833 -3.0882,55.9542 -18.5302,13.4708 -37.0602,23.8325 -56.6198,22.7962 -19.5596,-1.0364 -58.6787,-8.29 -67.9436,-20.7235 -9.2651,-12.4345 -15.4418,-31.0862 -15.4418,-31.0862 z"
       id="path1355"
       inkscape:connector-curvature="0" />
    <path
       style="fill:#ffffff;fill-rule:evenodd;stroke:none;stroke-width:1px;stroke-linecap:butt;stroke-linejoin:miter;stroke-opacity:1"
       d="m 1005.9554,1564.5354 c 18.5259,2.0314 45.654,-7.5765 30.6765,-38.1612 29.0714,21.6699 52.9068,17.8869 100.1958,-16.1391 -3.9297,47.4093 17.206,42.9799 36.2603,33.8779 -18.2868,15.9536 14.5387,25.0955 32.196,25.9916 -37.3521,34.5064 -17.7382,45.4806 -3.0201,58.4772 -36.7083,-9.6156 -27.8302,9.8675 -32.2148,20.8848 -31.4901,-24.9624 -54.3909,-19.038 -72.4831,4.1769 -9.4625,-12.6249 -12.4326,-38.7184 -47.3154,1.3923 12.8273,-34.6271 -3.9864,-30.9924 -31.2079,-13.9231 4.2662,-11.7944 29.6222,-29.7296 -13.0873,-27.8464 26.6772,-11.2123 32.2716,-26.401 0,-48.7309 z"
       id="path4584"
       inkscape:connector-curvature="0"
       sodipodi:nodetypes="cccccccccccc" />
    <path
       style="color:#000000;display:inline;overflow:visible;visibility:visible;fill:#ffffff;fill-opacity:1;fill-rule:nonzero;stroke:none;stroke-width:1px;marker:none;enable-background:accumulate"
       d="m 1092.7675,1600.0887 c 32.5118,17.1362 69.5241,50.078 26.9344,88.4809 5.5785,26.0417 6.6264,46.3987 -29.7935,75.4959 22.4386,-26.2104 31.5308,-42.9396 20.1333,-80.7335 19.0733,-22.4288 9.883,-53.2464 -33.7163,-67.4214 -43.5993,-14.1751 -33.1079,-7.2586 -33.1079,-7.2586 l 36.9086,-13.1055 z"
       id="path5074"
       inkscape:connector-curvature="0"
       sodipodi:nodetypes="ccccsccc" />
    <path
       style="fill:#ffffff;stroke:none;stroke-width:0.999998"
       d="m 1641.2389,1626.3692 c -23.6692,-22.5115 -16.2357,-35.8105 -6.3972,-46.3314 9.8357,-10.5203 11.5626,-22.6355 9.6907,-30.0237 -1.8719,-7.3881 -10.8731,-18.1272 -18.2553,-23.021 -7.3832,-4.8937 2.0396,-17.023 7.4292,-24.7215 7.1196,-10.1717 17.3403,-10.9015 17.3403,-10.9015 0,0 -8.6513,-43.4434 -16.6505,-33.7546 -7.9983,9.6888 -25.6203,43.7517 -27.4427,48.1059 -1.8214,4.3541 -5.0288,17.8771 0.4234,24.5114 5.4533,6.6341 17.5984,9.8769 21.8896,18.2273 4.4207,8.6023 3.0414,15.2934 -2.2485,24.1895 -5.2898,8.8961 -13.1942,29.5079 -2.6908,39.3668 10.5043,9.8587 16.9118,14.3528 16.9118,14.3528 z"
       id="path3023-9"
       inkscape:connector-curvature="0"
       sodipodi:nodetypes="csssscssssssc" />
  </g>
  <g
     inkscape:groupmode="layer"
     id="layer1"
     inkscape:label="txt">
    <path
       style="color:#000000;display:inline;overflow:visible;visibility:visible;fill:#ffffff;fill-opacity:1;fill-rule:nonzero;stroke:none;stroke-width:1.07488px;marker:none;enable-background:accumulate"
       d="m 1258.2135,1778.3845 c 11.6091,-16.4768 34.2436,-30.1033 44.2357,-0.9712 28.0598,-27.2334 41.5666,-18.2417 63.497,1.1531 0.1963,-6.2082 7.5101,-31.014 39.067,-15.5544 -10.0036,-22.2467 20.5176,-24.2355 35.4234,-21.7469 -5.6645,-10.8797 2.8881,-19.0493 24.1247,-24.7994 -30.0962,-5.0899 -23.6587,-18.2293 15.6929,-30.8539 -41.2327,1.5668 -51.0315,-13.7125 -19.321,-33.8204 -15.2281,0.2274 -68.0007,28.9905 -62.0005,-27.5232 -18.2213,19.1239 -51.6408,41.2105 -83.9396,5.6123 -6.534,15.277 -28.2618,26.0304 -55.1482,7.4525 -3.3,14.9621 -32.4453,18.0286 -43.6138,15.7371 23.8556,14.993 24.4251,25.2087 -4.8836,28.6568 53.3119,26.3695 12.2906,24.4818 5.2813,32.468 40.1774,7.707 34.2835,22.2208 16.6767,29.06 35.3579,-18.8202 27.3496,14.3004 24.908,35.1296 z"
       id="path3549-3-8"
       inkscape:connector-curvature="0"
       sodipodi:nodetypes="cccccccccccccccc" />
    <text
       id="text4178-0"
       y="1600.2191"
       x="1106.0676"
       style="font-style:normal;font-variant:normal;font-weight:normal;font-stretch:normal;font-size:37.3333px;line-height:0%;font-family:ComicSpice;-inkscape-font-specification:ComicSpice;text-align:center;letter-spacing:0px;word-spacing:0px;text-anchor:middle;fill:#000000;fill-opacity:1;stroke:none"
       xml:space="preserve"><tspan
         y="1600.2191"
         x="1106.0676"
         style="font-style:normal;font-variant:normal;font-weight:normal;font-stretch:normal;font-size:37.3333px;line-height:1.25;font-family:ComicSpice;-inkscape-font-specification:ComicSpice"
         sodipodi:role="line"
         id="tspan4245-6-6">Đi Bi!</tspan></text>
    <text
       id="text4178-0-1"
       y="1710.4082"
       x="1331.897"
       style="font-style:normal;font-variant:normal;font-weight:normal;font-stretch:normal;font-size:32.7584px;line-height:0%;font-family:ComicSpice;-inkscape-font-specification:ComicSpice;text-align:center;letter-spacing:0px;word-spacing:0px;text-anchor:middle;fill:#000000;fill-opacity:1;stroke:none;stroke-width:0.999996"
       xml:space="preserve"
       transform="scale(1.0080992,0.99196588)"><tspan
         y="1710.4082"
         x="1331.897"
         style="font-style:normal;font-variant:normal;font-weight:normal;font-stretch:normal;font-size:32.7584px;line-height:1.25;font-family:ComicSpice;-inkscape-font-specification:ComicSpice;stroke-width:0.999996"
         sodipodi:role="line"
         id="tspan8148">Không, cho tôi!</tspan><tspan
         y="1751.3562"
         x="1331.897"
         style="font-style:normal;font-variant:normal;font-weight:normal;font-stretch:normal;font-size:32.7584px;line-height:1.25;font-family:ComicSpice;-inkscape-font-specification:ComicSpice;stroke-width:0.999996"
         sodipodi:role="line"
         id="tspan451">Cho tôi!</tspan></text>
    <text
       id="text4178-0-7"
       y="1453.9064"
       x="1646.5745"
       style="font-style:normal;font-variant:normal;font-weight:normal;font-stretch:normal;font-size:18.9857px;line-height:0%;font-family:ComicSpice;-inkscape-font-specification:ComicSpice;text-align:center;letter-spacing:0px;word-spacing:0px;text-anchor:middle;fill:#000000;fill-opacity:1;stroke:none;stroke-width:0.999996"
       xml:space="preserve"><tspan
         y="1453.9064"
         x="1646.5745"
         style="font-size:64.3559px;line-height:1.25;stroke-width:0.999996;-inkscape-font-specification:ComicSpice;font-family:ComicSpice;font-weight:normal;font-style:normal;font-stretch:normal;font-variant:normal"
         sodipodi:role="line"
         id="tspan4245-6-6-9">?</tspan></text>
    <text
       id="text4178-0-2"
       y="2675.3774"
       x="1992.4161"
       style="font-style:normal;font-variant:normal;font-weight:normal;font-stretch:normal;line-height:0%;font-family:ComicSpice;-inkscape-font-specification:ComicSpice;text-align:center;letter-spacing:0px;word-spacing:0px;text-anchor:middle;fill:#000000;fill-opacity:1;stroke:none"
       xml:space="preserve"><tspan
         y="2675.3774"
         x="1992.4161"
         style="font-style:normal;font-variant:normal;font-weight:normal;font-stretch:normal;font-size:40.6767px;line-height:1.25;font-family:ComicSpice;-inkscape-font-specification:ComicSpice"
         sodipodi:role="line"
         id="tspan424">Mày đang làm gì?</tspan></text>
    <text
       id="text4178-0-2-2"
       y="2771.0684"
       x="2080.3018"
       style="font-style:normal;font-variant:normal;font-weight:normal;font-stretch:normal;line-height:0%;font-family:ComicSpice;-inkscape-font-specification:ComicSpice;text-align:center;letter-spacing:0px;word-spacing:0px;text-anchor:middle;fill:#000000;fill-opacity:1;stroke:none"
       xml:space="preserve"><tspan
         y="2771.0684"
         x="2080.3018"
         style="font-style:normal;font-variant:normal;font-weight:normal;font-stretch:normal;font-size:40.6767px;line-height:1.25;font-family:ComicSpice;-inkscape-font-specification:ComicSpice"
         sodipodi:role="line"
         id="tspan501">    Chúng tôi đã thử kiếm</tspan><tspan
         y="2821.9143"
         x="2080.3018"
         style="font-style:normal;font-variant:normal;font-weight:normal;font-stretch:normal;font-size:40.6767px;line-height:1.25;font-family:ComicSpice;-inkscape-font-specification:ComicSpice"
         sodipodi:role="line"
         id="tspan1695">mày mấy tháng trời.</tspan></text>
    <text
       id="text851"
       y="2208.4019"
       x="1258.1051"
       style="font-style:normal;font-variant:normal;font-weight:normal;font-stretch:normal;font-size:32.7584px;line-height:0%;font-family:ComicSpice;-inkscape-font-specification:ComicSpice;text-align:center;letter-spacing:0px;word-spacing:0px;text-anchor:middle;fill:#000000;fill-opacity:1;stroke:none;stroke-width:0.999996"
       xml:space="preserve"
       transform="scale(1.0080992,0.99196588)"><tspan
         y="2208.4019"
         x="1258.1051"
         style="font-style:normal;font-variant:normal;font-weight:normal;font-stretch:normal;font-size:32.7584px;line-height:1.25;font-family:ComicSpice;-inkscape-font-specification:ComicSpice;stroke-width:0.999996"
         sodipodi:role="line"
         id="tspan849">Gì vậy?</tspan></text>
    <text
       xml:space="preserve"
       style="font-size:28px;line-height:normal;font-family:ComicSpice;-inkscape-font-specification:ComicSpice;text-align:center;text-decoration-color:#000000;text-anchor:middle;fill:#000000;stroke:none;stroke-width:1.5;stroke-linecap:round;stroke-linejoin:round;-inkscape-stroke:none;stop-color:#000000"
       x="803.81354"
       y="3141.2837"
       id="text1000"><tspan
         sodipodi:role="line"
         id="tspan998"
         x="803.81354"
         y="3141.2837">Ồ, con nhớ Cô Cây Yến Nhi</tspan><tspan
         sodipodi:role="line"
         x="803.81354"
         y="3176.2837"
         id="tspan1002">qúa! Cô khỏe khong?</tspan></text>
  </g>
</svg>
