<?xml version="1.0" encoding="UTF-8" standalone="no"?>
<!-- Created with Inkscape (http://www.inkscape.org/) -->

<svg
   id="svg2"
   version="1.1"
   inkscape:version="1.2.2 (b0a8486, 2022-12-01)"
   width="2481"
   height="3503"
   sodipodi:docname="E38P04.svg"
   inkscape:export-filename="E38P04.png"
   inkscape:export-xdpi="96"
   inkscape:export-ydpi="96"
   xmlns:inkscape="http://www.inkscape.org/namespaces/inkscape"
   xmlns:sodipodi="http://sodipodi.sourceforge.net/DTD/sodipodi-0.dtd"
   xmlns:xlink="http://www.w3.org/1999/xlink"
   xmlns="http://www.w3.org/2000/svg"
   xmlns:svg="http://www.w3.org/2000/svg"
   xmlns:rdf="http://www.w3.org/1999/02/22-rdf-syntax-ns#"
   xmlns:cc="http://creativecommons.org/ns#"
   xmlns:dc="http://purl.org/dc/elements/1.1/">
  <metadata
     id="metadata8">
    <rdf:RDF>
      <cc:Work
         rdf:about="">
        <dc:format>image/svg+xml</dc:format>
        <dc:type
           rdf:resource="http://purl.org/dc/dcmitype/StillImage" />
        <dc:title />
      </cc:Work>
    </rdf:RDF>
  </metadata>
  <defs
     id="defs6">
    <filter
       style="color-interpolation-filters:sRGB"
       id="filter4375-4-1-1-1-9-5-8-8-3-3"
       inkscape:label="Drop Shadow"
       x="-0.057181875"
       y="-0.095415185"
       width="1.0972139"
       height="1.2443046">
      <feFlood
         id="feFlood4377-7-9-0-8-1-7-3-1-6-61"
         flood-opacity="1"
         flood-color="rgb(87,166,204)"
         result="flood"
         radius="5.0999999999999996" />
      <feComposite
         id="feComposite4379-3-8-8-2-77-4-1-0-7-2"
         in2="SourceGraphic"
         in="flood"
         operator="in"
         result="composite1"
         baseFrequency="0.053999999999999999 0.053999999999999999" />
      <feMorphology
         id="feMorphology4393-1-0-49-8-9-3-0-1-5-9"
         operator="dilate"
         radius="5.1272503082614058"
         result="result3" />
      <feComposite
         id="feComposite4385-9-5-7-0-8-8-7-5-3-3"
         in2="result3"
         in="SourceGraphic"
         operator="over"
         result="fbSourceGraphic"
         numOctaves="4" />
      <feColorMatrix
         result="fbSourceGraphicAlpha"
         in="fbSourceGraphic"
         values="0 0 0 -1 0 0 0 0 -1 0 0 0 0 -1 0 0 0 0 1 0"
         id="feColorMatrix4544-9-5-1" />
      <feTurbulence
         id="feTurbulence4546-3-6-9"
         type="fractalNoise"
         numOctaves="4.4123222748815163"
         seed="172"
         baseFrequency="0.062 0.054054054054054057"
         result="turbulence" />
      <feDisplacementMap
         id="feDisplacementMap4548-8-2-4"
         in2="turbulence"
         in="fbSourceGraphic"
         scale="10.781991"
         yChannelSelector="G"
         xChannelSelector="R"
         result="fbSourceGraphic" />
      <feColorMatrix
         result="fbSourceGraphicAlpha"
         in="fbSourceGraphic"
         values="0 0 0 -1 0 0 0 0 -1 0 0 0 0 -1 0 0 0 0 1 0"
         id="feColorMatrix4670-7-9-7"
         scale="10.800000000000001" />
      <feFlood
         id="feFlood4672-4-1-8"
         flood-opacity="0"
         flood-color="rgb(45,8,0)"
         result="flood"
         in="fbSourceGraphic"
         dx="-2.3999999999999999" />
      <feComposite
         id="feComposite4674-8-2-4"
         in2="fbSourceGraphic"
         in="flood"
         operator="in"
         result="composite1" />
      <feGaussianBlur
         id="feGaussianBlur4676-3-7-50"
         in="composite1"
         stdDeviation="0"
         result="blur" />
      <feOffset
         id="feOffset4678-6-0-3"
         dx="-2.3696682464454994"
         dy="3.1000000000000001"
         result="offset" />
      <feComposite
         id="feComposite4680-4-9-6"
         in2="offset"
         in="fbSourceGraphic"
         operator="over"
         result="composite2" />
    </filter>
  </defs>
  <sodipodi:namedview
     pagecolor="#ffffff"
     bordercolor="#666666"
     borderopacity="1"
     objecttolerance="10"
     gridtolerance="10"
     guidetolerance="10"
     inkscape:pageopacity="0"
     inkscape:pageshadow="2"
     inkscape:window-width="1440"
     inkscape:window-height="430"
     id="namedview4"
     showgrid="false"
     inkscape:zoom="0.18702974"
     inkscape:cx="919.63984"
     inkscape:cy="2689.4119"
     inkscape:window-x="72"
     inkscape:window-y="46"
     inkscape:window-maximized="0"
     inkscape:current-layer="layer1"
     inkscape:showpageshadow="0"
     inkscape:pagecheckerboard="0"
     inkscape:deskcolor="#d1d1d1" />
  <g
     inkscape:groupmode="layer"
     id="layer2"
     inkscape:label="artwork"
     sodipodi:insensitive="true">
    <image
       xlink:href="../gfx_Pepper-and-Carrot_by-David-Revoy_E38P04.png"
       y="0"
       x="0"
       id="image10"
       height="3503"
       width="2481" />
  </g>
  <path
     style="color:#000000;display:inline;overflow:visible;visibility:visible;fill:#ffffff;fill-opacity:1;fill-rule:nonzero;stroke:none;stroke-width:0.999999px;marker:none;enable-background:accumulate"
     d="m 1707.5542,2031.0517 c -33.7241,86.288 24.3827,161.6365 22.7214,224.0306 -1.747,56.5345 3.233,81.3805 -4.3176,97.0072 17.6416,12.3945 24.5002,64.0279 36.8009,50.5952 12.3008,-13.4333 -14.2555,45.5813 -14.2555,45.5813 0,0 -48.406,-3.2408 -62.0153,-45.6293 -13.6092,-42.3886 16.053,-109.3925 19.9573,-147.9407 3.9042,-38.5479 -18.8728,-78.7992 -18.6406,-110.548 0.2313,-31.7496 -0.8231,-80.519 19.7494,-113.0963 z"
     id="path4538-7"
     inkscape:connector-curvature="0"
     sodipodi:nodetypes="cccccsscc" />
  <path
     style="color:#000000;display:inline;overflow:visible;visibility:visible;fill:#ffffff;fill-opacity:1;fill-rule:nonzero;stroke:none;stroke-width:1px;marker:none;enable-background:accumulate"
     d="m 415.71737,1808.757 c -26.98194,-21.2495 -52.89928,-35.4635 -53.40136,-63.9201 -2.29747,-22.5355 26.57239,-51.1483 24.36276,-80.9123 -2.20836,-29.7644 -27.4773,-50.6445 -37.02194,-58.8715 22.30057,-6.5256 52.6529,-24.219 68.20209,-17.1468 15.54933,7.0723 -18.02024,-23.9979 -18.02024,-23.9979 0,0 -61.18955,1.7064 -78.39293,24.023 -17.20326,22.3169 33.76744,57.5933 38.70283,77.8883 4.93526,20.2947 -22.06026,49.9447 -21.76674,66.6599 0.29238,48.3513 64.6098,67.6632 77.33553,76.2774 z"
     id="path4538-7-3"
     inkscape:connector-curvature="0"
     sodipodi:nodetypes="ccscccsscc" />
  <g
     inkscape:groupmode="layer"
     id="layer3"
     inkscape:label="speechbubbles">
    <path
       style="display:inline;fill:#ffffff;stroke:none;stroke-width:0.909505"
       d="m 1212.7778,2183.5594 c -46.3359,0.8733 -92.7493,13.5184 -128.3129,37.3681 -20.4139,13.7524 -36.5917,32.1275 -42.7019,53.0036 -7.3741,23.7175 -7.1087,48.364 -6.0364,72.6156 1.0791,22.686 2.6252,45.4314 0.4559,68.1095 -0.4073,5.1965 -1.3991,10.3772 -0.923,15.594 0.6778,12.6623 3.7724,25.1431 6.99,37.5248 6.1701,20.3925 17.6064,40.3667 36.7088,55.1986 16.8324,13.0259 38.6832,21.323 61.2933,25.9215 51.0158,11.8192 105.0379,12.5847 157.5826,8.2755 25.1267,-2.0682 50.5086,-5.211 73.8256,-13.272 14.2363,-4.84 28.0983,-10.4894 40.9273,-17.3939 13.5858,-7.4854 25.0679,-17.6833 31.4239,-29.8902 6.6353,-12.2559 8.4962,-25.6724 9.6625,-38.8536 2.6772,-25.6334 2.4597,-51.3881 1.7447,-77.0816 -0.658,-16.6325 -1.0067,-33.272 -1.5259,-49.9066 -1.2653,-25.8506 -5.8668,-51.9993 -18.5863,-75.9951 -9.8831,-18.5388 -26.2181,-35.3353 -48.1872,-45.7407 -20.904,-10.1314 -44.8004,-15.424 -68.5566,-19.4998 -32.8617,-5.3322 -66.5428,-6.183 -99.9853,-6.0183 -1.9332,-0.02 -3.866,0.026 -5.7991,0.041 z"
       id="path3280-5"
       inkscape:connector-curvature="0"
       sodipodi:nodetypes="csssc" />
    <path
       style="color:#000000;display:inline;overflow:visible;visibility:visible;fill:#ffffff;fill-opacity:1;fill-rule:nonzero;stroke:none;stroke-width:0.999999px;marker:none;enable-background:accumulate"
       d="m 1194.4261,2219.843 c 45.8361,-19.5196 82.587,-105.5394 -49.1007,-120.7493 127.103,-6.1934 159.2541,38.4346 96.4979,159.5477 -28.3877,54.7848 -31.2357,-25.6942 -31.2357,-25.6942 z"
       id="path4035-4"
       inkscape:connector-curvature="0"
       sodipodi:nodetypes="ccscc" />
    <path
       style="fill:#ffffff;stroke:none;stroke-width:1.09162"
       d="m 812.56254,139.96521 c -30.64544,0.24114 -61.90934,2.45344 -90.74047,12.76758 -27.48668,10.1501 -46.75814,35.6673 -49.50552,62.6674 -2.25163,21.1681 3.10892,43.6754 17.9158,60.3432 14.14143,15.7324 35.16351,24.9198 56.54119,28.94 20.51555,3.8265 41.4913,4.9192 62.36693,5.5228 23.74415,0.4799 47.51408,-0.1369 71.20799,-1.5572 23.0318,-2.4681 46.0009,-10.7227 62.50584,-26.1426 14.64817,-13.2877 24.00628,-32.1555 22.72201,-51.3185 -0.68974,-21.9245 -9.37162,-44.0357 -25.94538,-59.98155 -13.11856,-11.50473 -30.69175,-17.07178 -47.79762,-21.40324 -25.79192,-6.50133 -52.50663,-10.13503 -79.27077,-9.83789 z"
       id="path3280-10"
       inkscape:connector-curvature="0"
       sodipodi:nodetypes="csssc" />
    <path
       style="display:inline;fill:#ffffff;stroke:none;stroke-width:1.11916"
       d="m 1266.7324,547.49961 c -43.6866,-20.93572 -73.9387,-80.96566 -41.3589,-145.64202 19.7402,-39.18815 35.1022,-60.6335 35.1022,-60.6335 l -37.5089,2.7045 -24.2698,43.0095 c 0,0 -40.3372,122.77438 68.0354,160.56152 z"
       id="path3063-1-6"
       inkscape:connector-curvature="0"
       sodipodi:nodetypes="cscccc" />
    <path
       style="fill:#ffffff;fill-rule:evenodd;stroke:none;stroke-width:1px;stroke-linecap:butt;stroke-linejoin:miter;stroke-opacity:1"
       d="m 2151.4643,1034.3276 c 3.813,13.612 19.8117,22.2508 22.7974,32.4416 0.4278,4.9156 -2.7714,8.4856 -4.8902,12.015 -3.7283,5.4459 -18.0962,30.0091 -18.5828,37.712 -0.1397,9.1352 8.308,16.0816 14.6894,12.2332 4.8705,-2.3897 8.8711,-0.1294 9.728,-6.4196 2.4151,-8.411 16.5023,-41.9245 20.2796,-49.1746 2.4202,-6.4816 0.7708,-14.7433 -3.4765,-19.2722 -6.907,-9.4821 -17.1682,-11.5411 -25.2954,-18.8894 -10.7486,-11.6758 9.6447,-50.61274 16.4743,-64.02001 -6.1842,2.90653 -37.7876,56.72531 -31.7238,63.37401 z"
       id="path4272-2"
       inkscape:connector-curvature="0"
       sodipodi:nodetypes="ccssscccccc" />
    <path
       style="fill:#ffffff;stroke:none;stroke-width:0.855825"
       d="m 838.07617,290.36144 c -28.37838,1.56756 -54.83689,9.82856 -81.76197,15.88554 -18.1919,4.45219 -36.59044,10.81899 -48.60836,22.18006 -19.11321,17.46053 -26.8954,40.18847 -27.47844,62.23649 -0.59688,26.38822 7.51385,53.08514 25.02715,76.23554 15.67402,18.44956 42.42,30.88998 70.93979,35.99162 31.55365,6.04035 64.67473,5.6219 96.84023,2.86138 28.63324,-2.95827 56.54552,-11.23896 78.61353,-25.08889 20.76398,-12.61794 37.50963,-29.77544 42.61557,-49.4492 4.0272,-15.74139 2.64384,-31.83089 2.60368,-47.74803 -0.67707,-16.70378 -4.45193,-34.02915 -17.12916,-48.27701 -15.17535,-17.45441 -39.78099,-29.76631 -66.49255,-35.94641 -24.0735,-6.19795 -49.66925,-9.12509 -75.16947,-8.88109 z"
       id="path3100-98"
       inkscape:connector-curvature="0"
       sodipodi:nodetypes="zsssssz" />
    <path
       style="fill:#ffffff;fill-rule:evenodd;stroke:none;stroke-width:0.999993px;stroke-linecap:butt;stroke-linejoin:miter;stroke-opacity:1"
       d="m 2080.5895,1165.4071 c 3.3262,-33.8764 41.6859,-52.579 72.7741,-46.9784 25.8394,-0.5847 58.872,1.1633 72.6458,26.8263 12.4489,28.269 -14.5084,63.1107 -45.0957,59.1001 -34.2198,3.0609 -75.2376,0.8924 -98.1895,-28.3999 -1.9106,-3.1256 -2.7073,-6.9264 -2.1347,-10.5481 z"
       id="path1285"
       inkscape:connector-curvature="0" />
    <path
       style="fill:#ffffff;fill-rule:evenodd;stroke:none;stroke-width:0.87598px;stroke-linecap:butt;stroke-linejoin:miter;stroke-opacity:1"
       d="m 1340.5015,139.55343 c -39.3477,0.006 -79.1635,-0.57274 -117.6058,5.15307 -31.8786,5.22659 -62.2133,15.8678 -85.1713,32.24396 -9.6928,7.23515 -15.8902,16.40709 -21.2115,25.5931 -11.7828,21.19511 -13.945,45.25259 -5.564,67.76435 9.7619,27.80018 34.1923,53.81042 69.1021,69.1522 17.4328,7.53081 37.7411,11.33506 57.7966,11.27483 25.623,0.82224 51.2177,0.3264 76.834,0.78841 36.6192,0.009 73.7261,-0.43 109.0513,-7.00647 24.325,-4.66847 47.3833,-13.74152 62.9508,-27.83502 19.3791,-16.84375 28.6219,-39.05436 27.4238,-61.05889 -0.2025,-25.69339 -9.6943,-51.92221 -29.8198,-73.95952 -15.5708,-15.42864 -39.3533,-25.75072 -64.0614,-32.03973 -25.6313,-6.65151 -52.7942,-9.62445 -79.7248,-10.07029 z"
       id="path1289"
       inkscape:connector-curvature="0"
       sodipodi:nodetypes="csssssssscc" />
    <path
       style="color:#000000;display:inline;overflow:visible;visibility:visible;fill:#ffffff;fill-opacity:1;fill-rule:nonzero;stroke:none;stroke-width:0.999999px;marker:none;enable-background:accumulate"
       d="m 699.77862,595.42285 c 90.9194,5.17139 103.93742,-82.12184 83.66659,-148.47756 -20.27099,-66.35455 -5.51814,-41.54615 -5.51814,-41.54615 l 34.28339,7.09789 c 0,0 57.50435,216.25637 -112.43184,182.92582 z"
       id="path3072-56"
       inkscape:connector-curvature="0"
       sodipodi:nodetypes="ccccc" />
    <path
       style="color:#000000;display:inline;overflow:visible;visibility:visible;fill:#ffffff;fill-opacity:1;fill-rule:nonzero;stroke:none;stroke-width:1px;marker:none;enable-background:accumulate"
       d="m 1087.4572,1915.5501 c 46.4378,6.848 72.1287,-9.9568 84.9916,-22.9791 -3.3421,-5.4461 -12.3203,-21.4734 -12.3203,-21.4734 -2.9694,-0.642 38.2293,-17.701 48.172,-30.028 9.0834,-11.2616 -11.5309,-29.4873 -11.5309,-29.4873 -14.2164,-16.9604 9.1287,12.7285 -70.3691,48.6913 9.7254,14.621 15.6982,22.6585 19.4108,29.6818 -3.9586,3.8647 -36.6798,26.5229 -58.3541,25.5947 z"
       id="path4456-3"
       inkscape:connector-curvature="0"
       sodipodi:nodetypes="cccscccc"
       inkscape:transform-center-x="-4.1291461"
       inkscape:transform-center-y="8.0335027" />
    <path
       style="color:#000000;display:inline;overflow:visible;visibility:visible;fill:#ffffff;fill-opacity:1;fill-rule:nonzero;stroke:none;stroke-width:0.999994px;marker:none;enable-background:accumulate"
       d="m 1142.6046,1636.7194 c -5.8299,24.4807 -38.7112,26.5342 -50.8156,21.5582 24.3998,27.3861 23.5491,44.402 -9.5789,47.0429 55.5564,49.3581 10.1564,41.8891 1.2016,54.4038 43.622,17.0103 29.1634,42.7908 1.1636,54.6415 50.1393,0.7238 38.0014,18.0967 19.0187,43.0964 22.1996,-16.3674 56.4448,-28.137 57.6598,14.6566 32.1655,-37.3837 48.7612,-36.6556 60.3929,5.6174 9.716,-36.4522 42.7995,-43.4676 55.4501,-4.1554 10.8975,-53.2037 49.7814,-45.7132 72.9274,-19.9285 -6.4965,-9.0988 -19.7873,-50.1567 39.6405,-32.2972 13.3461,4.0109 20.795,-5.8494 10.9919,-16.2535 -17.3381,-18.831 -12.8326,-24.8398 9.5375,-22.0595 -25.7677,-10.0759 -26.1093,-26.9186 21.7354,-38.1037 -36.4071,-1.0808 -70.3568,-3.2979 -27.6435,-41.4425 -13.4003,-0.923 -84.308,-10.4707 -19.3525,-56.8663 -59.3612,26.5622 -77.526,20.1206 -54.0956,-25.8266 -68.7783,49.1202 -79.7695,53.2149 -86.2891,11.9359 -9.0889,36.411 -36.695,21.1642 -51.036,-3.6877 -9.4757,24.6627 -23.6505,41.3202 -50.9082,7.6682 z"
       id="path3549-3-7-8"
       inkscape:connector-curvature="0"
       sodipodi:nodetypes="ccccccccccsccccccccc" />
    <path
       style="fill:#ffffff;stroke:none;stroke-width:0.999992"
       d="M 308.41211 1440.8496 C 291.02864 1443.1224 273.86775 1449.7968 256.12109 1447.2422 C 244.58221 1445.5685 232.52608 1441.9528 221.03125 1445.8184 C 199.1159 1455.6563 180.39816 1472.069 157.02479 1478.7242 C 147.63809 1481.9299 138.34948 1488.6404 135.94329 1498.77 C 131.47409 1514.6895 134.88678 1531.9179 128.73167 1547.4859 C 126.70843 1553.5349 125.00493 1561.1306 129.49805 1566.5234 C 135.91674 1574.1696 146.55554 1576.766 152.44602 1584.9984 C 157.914 1591.6637 163.25512 1599.496 171.9869 1602.031 C 183.84719 1606.2313 195.99452 1609.6381 207.62083 1614.4789 C 227.70841 1621.319 249.23228 1623.3799 270.32575 1621.5887 C 307.32509 1620.2365 344.26243 1616.6921 381.31701 1617.2743 C 397.60858 1616.7772 414.42873 1616.1615 429.64056 1609.7026 C 441.52558 1601.7426 446.14433 1586.2587 459.15625 1579.6406 C 467.45642 1574.8701 477.35264 1570.8905 481.86213 1561.8156 C 486.70122 1552.0155 483.75287 1540.356 478.46511 1531.3772 C 473.22176 1521.5059 471.20933 1510.1479 471.95769 1499.0466 C 471.9315 1490.5959 471.04648 1480.9194 464.21875 1475.0156 C 455.60269 1467.6507 443.6822 1467.3774 433.57008 1463.2156 C 421.86866 1458.9777 411.02765 1452.2365 398.73794 1449.7335 C 388.64641 1448.0197 378.50464 1450.2594 368.64993 1452.2936 C 357.74657 1453.9106 346.32044 1452.6164 336.36392 1447.7527 C 327.37982 1444.3904 318.19523 1440.536 308.41211 1440.8496 z "
       id="path3280-7"
       inkscape:connector-curvature="0"
       sodipodi:nodetypes="csssc" />
    <path
       style="fill:#ffffff;stroke:none;stroke-width:1.00001"
       d="m 1021.5107,1583.5797 c 21.3162,-10.7543 30.2734,-25.4057 27.1644,-43.8617 41.7765,5.6944 51.2433,0.1243 77.7252,-23.0425 43.0878,6.7466 93.9116,15.0877 155.7088,7.6911 7.387,19.9338 23.7648,44.6302 45.3418,60.7608 -34.7131,28.6087 -21.8362,52.6157 -20.7231,74.9803 -40.275,-5.3138 -42.6487,4.4901 -80.2029,16.1908 l -114.359,-4.9184 c -11.4276,-17.6539 -36.0196,-20.0182 -61.557,-21.2847 3.6237,-21.9333 -6.1468,-51.7987 -29.0982,-66.5157 z"
       id="path3280-7-1"
       inkscape:connector-curvature="0"
       sodipodi:nodetypes="cccccccccc" />
    <path
       style="color:#000000;display:inline;overflow:visible;visibility:visible;fill:#ffffff;fill-opacity:1;fill-rule:nonzero;stroke:none;stroke-width:0.920912px;marker:none;enable-background:accumulate"
       d="m 1706.8849,1431.1605 c -42.522,-0.1618 -86.2043,4.6574 -125.0439,23.7954 -36.507,17.0844 -58.2952,59.7497 -55.8937,100.5902 0.8485,19.6925 6.7355,39.165 17.5539,55.4278 11.8761,18.3689 29.3819,32.5807 49.2989,40.4031 37.2105,16.2636 77.9354,21.3322 117.995,22.4387 51.3703,0.7357 102.8279,-7.6832 151.6332,-24.2594 18.7763,-6.9653 37.9322,-17.5726 48.0418,-36.2263 15.4819,-27.9758 17.0274,-62.6666 8.3014,-93.2092 -5.4529,-19.6148 -16.8095,-37.339 -32.2925,-49.9587 -18.2925,-15.4527 -41.1988,-23.057 -63.7305,-28.9483 -37.8813,-9.4104 -77.1091,-10.2239 -115.8636,-10.0533 z"
       id="path3365-90"
       inkscape:connector-curvature="0"
       sodipodi:nodetypes="csssssc" />
    <path
       style="color:#000000;display:inline;overflow:visible;visibility:visible;fill:#ffffff;fill-opacity:1;fill-rule:nonzero;stroke:none;stroke-width:1px;marker:none;enable-background:accumulate"
       d="m 1689.6997,2497.7274 c -20.6097,0.1577 -41.6873,1.5534 -61.0335,8.7582 -17.3296,6.6796 -30.5816,20.976 -37.1296,37.2665 -6.1919,15.4657 -9.6879,32.4148 -6.4172,48.8576 3.4387,18.1043 18.6034,33.5276 37.3159,38.7263 16.5121,5.2856 33.6173,8.8791 50.8799,11.1739 20.8731,2.6565 41.9847,3.7457 63.0401,3.168 28.424,-1.2562 56.6466,-5.9563 83.9218,-13.5248 12.1702,-3.8011 23.9645,-10.3549 31.0272,-20.6817 9.3206,-13.0283 12.3661,-29.3936 10.3616,-44.8183 -2.0781,-14.2546 -9.8677,-27.6169 -21.3259,-37.1416 -13.4897,-11.5281 -30.7338,-18.2519 -48.0911,-22.8504 -33.2978,-8.7577 -68.2425,-8.9914 -102.5492,-8.9337 z"
       id="path3365-90-4"
       inkscape:connector-curvature="0"
       sodipodi:nodetypes="csssssc" />
    <path
       style="fill:#ffffff;stroke-width:1.5;stroke-linecap:round;stroke-linejoin:round;-inkscape-stroke:none;stop-color:#000000"
       d="m 1695.6522,2476.3706 h 24.5747 l 9.4518,35.9168 h -24.5747 z"
       id="path3758" />
    <path
       style="color:#000000;display:inline;overflow:visible;visibility:visible;fill:#ffffff;fill-opacity:1;fill-rule:nonzero;stroke:none;stroke-width:0.857507px;marker:none;enable-background:accumulate"
       d="m 1690.9219,2384.2973 c -18.5109,0.1118 -37.4421,1.1017 -54.8182,6.2113 -15.5647,4.7371 -27.467,14.876 -33.3483,26.4292 -5.5614,10.9682 -8.7015,22.9885 -5.7638,34.6497 3.0887,12.8393 16.7091,23.7776 33.5157,27.4644 14.8306,3.7486 30.1939,6.2971 45.6988,7.9246 18.7474,1.884 37.709,2.6563 56.6203,2.2467 25.5294,-0.8909 50.878,-4.2242 75.3755,-9.5918 10.9307,-2.6957 21.524,-7.3436 27.8674,-14.6673 8.3716,-9.2396 11.1068,-20.8458 9.3065,-31.785 -1.8663,-10.1093 -8.8629,-19.5859 -19.1541,-26.3406 -12.116,-8.1758 -27.604,-12.9443 -43.1938,-16.2054 -29.907,-6.2109 -61.293,-6.3768 -92.106,-6.3358 z"
       id="path3365-90-4-4"
       inkscape:connector-curvature="0"
       sodipodi:nodetypes="csssssc" />
    <path
       style="color:#000000;display:inline;overflow:visible;visibility:visible;fill:#ffffff;fill-opacity:1;fill-rule:nonzero;stroke:none;stroke-width:0.999999px;marker:none;enable-background:accumulate"
       d="m 1619.6473,2277.7277 c -5.2278,17.3535 -34.7133,18.809 -45.5678,15.2817 21.88,19.4135 21.1171,31.4749 -8.5898,33.3483 49.8192,34.9881 9.1076,29.6937 1.0775,38.5654 39.1173,12.0583 24.4262,16.4741 8.3283,29.7836 44.9614,0.5125 39.4704,12.4678 20.5929,29.9454 28.162,-10.0221 43.3904,-22.6987 40.8824,19.9447 24.2185,-23.6799 51.6845,-34.4125 68.4039,3.0116 11.9825,-25.4798 24.338,-39.6068 45.9145,-2.5 -5.896,-39.9458 33.4633,-28.657 60.301,-17.4854 -6.3728,-10.6779 4.413,-38.3974 30.6744,-25.9626 -17.8391,-17.4597 4.5023,-19.9526 21.8909,-24.779 -23.1066,-7.1428 -27.3651,-14.5105 15.5387,-22.4393 -32.6472,-0.7671 -63.0911,-2.3382 -24.7887,-29.3781 -12.0166,-0.6539 -40.527,21.908 -27.2343,-44.1215 -20.6631,21.1385 -42.7087,32.8054 -70.356,-11.4739 -29.0736,34.4805 -33.1133,-0.9201 -42.9862,-28.5513 -3.5486,11.7793 -17.7299,45.2539 -30.2212,45.7914 -4.8304,-4.6796 -13.0104,-6.0912 -18.2093,-14.4175 -8.4974,17.4831 -21.2083,29.2914 -45.6512,5.4365 z"
       id="path3549-3-7-1"
       inkscape:connector-curvature="0"
       sodipodi:nodetypes="cccccccccccccccccccc" />
    <path
       style="display:inline;fill:#ffffff;fill-rule:evenodd;stroke:none;stroke-width:1.13414px;stroke-linecap:butt;stroke-linejoin:miter;stroke-opacity:1"
       d="m 1897.9975,1762.0301 c -93.6968,6.4837 -112.3781,-69.4852 -108.9143,-95.8648 3.4638,-26.3791 35.2288,-81.0148 31.0406,-60.679 -6.2946,30.564 -12.0556,136.4977 77.8737,156.5438 z"
       id="path4293"
       inkscape:connector-curvature="0"
       sodipodi:nodetypes="cssc" />
    <circle
       style="fill:#ffffff;stroke-width:1.5;stroke-linecap:round;stroke-linejoin:round;-inkscape-stroke:none;stop-color:#000000"
       id="path3845"
       cx="1618.1475"
       cy="3179.584"
       r="11.342155" />
    <circle
       style="fill:#ffffff;stroke-width:1.875;stroke-linecap:round;stroke-linejoin:round;-inkscape-stroke:none;stop-color:#000000"
       id="circle3847"
       cx="1637.9962"
       cy="3152.1736"
       r="14.177694" />
    <circle
       style="fill:#ffffff;stroke-width:2.5;stroke-linecap:round;stroke-linejoin:round;-inkscape-stroke:none;stop-color:#000000"
       id="circle3849"
       cx="1648.3932"
       cy="3113.4211"
       r="18.903593" />
    <path
       style="fill:#ffffff;stroke-width:1.36492;stroke-linecap:round;stroke-linejoin:round;-inkscape-stroke:none;stop-color:#000000"
       d="m 1782.6087,3056.77 c 20.0983,8.1141 42.0177,-5.1468 35.115,-32.3091 5.0969,-15.8753 -0.388,-31.2121 -28.4987,-31.7025 -13.3282,-22.0715 -44.3723,-20.9307 -58.6012,-6.2609 -3.6523,-27.2173 -48.2559,-28.0263 -59.5463,-0.7826 -11.1045,-18.3892 -45.9148,-20.3712 -56.7107,1.3005 -22.7059,0 -38.5557,-10.9997 -43.4783,12.7865 -19.1763,-7.292 -20.4346,39.9778 -1.8903,35.97 -10.1147,20.2811 1.2901,33.4768 24.5746,31.3347 25.2728,19.6972 42.0885,13.0126 56.7108,-3.1305 14.8067,15.5061 35.1672,20.2091 54.8204,6.2609 20.4858,16.9508 34.2743,11.5674 45.3686,-3.1304 8.3925,9.9312 20.516,0.6594 32.1361,-10.3366 z"
       id="path3851"
       sodipodi:nodetypes="ccccccccccccc" />
  </g>
  <g
     inkscape:groupmode="layer"
     id="layer1"
     inkscape:label="txt">
    <text
       id="text4178-0"
       y="215.49406"
       x="810.44226"
       style="font-style:normal;font-variant:normal;font-weight:normal;font-stretch:normal;line-height:0%;font-family:ComicSpice;-inkscape-font-specification:ComicSpice;text-align:center;letter-spacing:0px;word-spacing:0px;text-anchor:middle;fill:#000000;fill-opacity:1;stroke:none"
       xml:space="preserve"><tspan
         y="215.49406"
         x="810.44226"
         style="font-style:normal;font-variant:normal;font-weight:normal;font-stretch:normal;font-size:40.6767px;line-height:1.25;font-family:ComicSpice;-inkscape-font-specification:ComicSpice"
         sodipodi:role="line"
         id="tspan2081">Sao cô không</tspan><tspan
         y="266.33994"
         x="810.44226"
         style="font-style:normal;font-variant:normal;font-weight:normal;font-stretch:normal;font-size:40.6767px;line-height:1.25;font-family:ComicSpice;-inkscape-font-specification:ComicSpice"
         sodipodi:role="line"
         id="tspan2085">thấy lý do rõ?</tspan></text>
    <text
       id="text4178-0-9"
       y="360.43509"
       x="842.25592"
       style="font-style:normal;font-variant:normal;font-weight:normal;font-stretch:normal;line-height:0%;font-family:ComicSpice;-inkscape-font-specification:ComicSpice;text-align:center;letter-spacing:0px;word-spacing:0px;text-anchor:middle;fill:#000000;fill-opacity:1;stroke:none"
       xml:space="preserve"><tspan
         y="360.43509"
         x="842.25592"
         style="font-style:normal;font-variant:normal;font-weight:normal;font-stretch:normal;font-size:40.6767px;line-height:1.25;font-family:ComicSpice;-inkscape-font-specification:ComicSpice"
         sodipodi:role="line"
         id="tspan502">Con quyết định</tspan><tspan
         y="411.28098"
         x="842.25592"
         style="font-style:normal;font-variant:normal;font-weight:normal;font-stretch:normal;font-size:40.6767px;line-height:1.25;font-family:ComicSpice;-inkscape-font-specification:ComicSpice"
         sodipodi:role="line"
         id="tspan2096">đổi sang</tspan><tspan
         y="462.12683"
         x="842.25592"
         style="font-style:normal;font-variant:normal;font-weight:normal;font-stretch:normal;font-size:40.6767px;line-height:1.25;font-family:ComicSpice;-inkscape-font-specification:ComicSpice"
         sodipodi:role="line"
         id="tspan2098">sự nghiệp mới.</tspan></text>
    <text
       id="text4178-0-8"
       y="210.84872"
       x="1308.2234"
       style="font-style:normal;font-variant:normal;font-weight:bold;font-stretch:normal;line-height:0%;font-family:ComicSpice;-inkscape-font-specification:'ComicSpice Bold';text-align:center;letter-spacing:0px;word-spacing:0px;text-anchor:middle;fill:#000000;fill-opacity:1;stroke:none"
       xml:space="preserve"><tspan
         y="210.84872"
         x="1308.2234"
         style="font-style:normal;font-variant:normal;font-weight:bold;font-stretch:normal;font-size:40.6767px;line-height:1.25;font-family:ComicSpice;-inkscape-font-specification:'ComicSpice Bold'"
         sodipodi:role="line"
         id="tspan872">Từ đây tới sau, con là</tspan><tspan
         y="261.69461"
         x="1308.2234"
         style="font-style:normal;font-variant:normal;font-weight:bold;font-stretch:normal;font-size:40.6767px;line-height:1.25;font-family:ComicSpice;-inkscape-font-specification:'ComicSpice Bold'"
         sodipodi:role="line"
         id="tspan2112">Thầy Thuốc Đại</tspan><tspan
         y="312.54047"
         x="1308.2234"
         style="font-style:normal;font-variant:normal;font-weight:bold;font-stretch:normal;font-size:40.6767px;line-height:1.25;font-family:ComicSpice;-inkscape-font-specification:'ComicSpice Bold'"
         sodipodi:role="line"
         id="tspan2114">Phép Đa Ra .</tspan></text>
    <text
       id="text4178-0-8-3"
       y="1164.1686"
       x="2158.5315"
       style="font-style:normal;font-variant:normal;font-weight:normal;font-stretch:normal;font-size:18.1011px;line-height:0%;font-family:ComicSpice;-inkscape-font-specification:ComicSpice;text-align:center;letter-spacing:0px;word-spacing:0px;text-anchor:middle;fill:#000000;fill-opacity:1;stroke:none;stroke-width:1"
       xml:space="preserve"><tspan
         y="1164.1686"
         x="2158.5315"
         style="font-size:61.3576px;line-height:1.25;stroke-width:1;-inkscape-font-specification:ComicSpice;font-family:ComicSpice;font-weight:normal;font-style:normal;font-stretch:normal;font-variant:normal"
         sodipodi:role="line"
         id="tspan10165-3">...</tspan></text>
    <text
       id="text4178-0-8-1"
       y="1517.5582"
       x="309.36703"
       style="font-style:normal;font-variant:normal;font-weight:bold;font-stretch:normal;line-height:0%;font-family:ComicSpice;-inkscape-font-specification:'ComicSpice Bold';text-align:center;letter-spacing:0px;word-spacing:0px;text-anchor:middle;fill:#000000;fill-opacity:1;stroke:none;stroke-width:1.2;stroke-dasharray:none"
       xml:space="preserve"><tspan
         y="1517.5582"
         x="309.36703"
         style="font-style:normal;font-variant:normal;font-weight:bold;font-stretch:normal;font-size:40.6767px;line-height:1.25;font-family:ComicSpice;-inkscape-font-specification:'ComicSpice Bold';stroke-width:1.2;stroke-dasharray:none"
         sodipodi:role="line"
         id="tspan495"><tspan
   style="font-style:normal;font-variant:normal;font-weight:bold;font-stretch:normal;font-family:ComicSpice;-inkscape-font-specification:'ComicSpice Bold'"
   id="tspan1185">&quot;Nhưng tại sao&quot;</tspan>, </tspan><tspan
         y="1568.4041"
         x="309.36703"
         style="font-style:normal;font-variant:normal;font-weight:bold;font-stretch:normal;font-size:40.6767px;line-height:1.25;font-family:ComicSpice;-inkscape-font-specification:'ComicSpice Bold';stroke-width:1.2;stroke-dasharray:none"
         sodipodi:role="line"
         id="tspan1183">con đổi sự nghiệp?!</tspan></text>
    <text
       id="text4178-0-8-1-5"
       y="1601.9043"
       x="1180.2919"
       style="font-style:normal;font-variant:normal;font-weight:bold;font-stretch:normal;line-height:0%;font-family:ComicSpice;-inkscape-font-specification:'ComicSpice Bold';text-align:center;letter-spacing:0px;word-spacing:0px;text-anchor:middle;fill:#000000;fill-opacity:1;stroke:none"
       xml:space="preserve"><tspan
         y="1601.9043"
         x="1180.2919"
         style="font-style:normal;font-variant:normal;font-weight:bold;font-stretch:normal;font-size:40.6767px;line-height:1.25;font-family:ComicSpice;-inkscape-font-specification:'ComicSpice Bold'"
         sodipodi:role="line"
         id="tspan10454">Rất đơn giản!</tspan></text>
    <text
       id="text4178-0-8-1-5-0"
       y="1735.2906"
       x="1242.7445"
       style="font-style:normal;font-variant:normal;font-weight:bold;font-stretch:normal;font-size:16.2678px;line-height:0%;font-family:ComicSpice;-inkscape-font-specification:'ComicSpice Bold';text-align:center;letter-spacing:1.0542px;word-spacing:0px;text-anchor:middle;fill:#000000;fill-opacity:1;stroke:#000000;stroke-width:1.7;stroke-dasharray:none;stroke-opacity:1"
       xml:space="preserve"
       transform="scale(0.99980073,1.0001993)"><tspan
         y="1735.2906"
         x="1242.7445"
         style="font-style:normal;font-variant:normal;font-weight:bold;font-stretch:normal;font-size:55.1434px;line-height:1.25;font-family:ComicSpice;-inkscape-font-specification:'ComicSpice Bold';stroke:#000000;stroke-width:1.7;stroke-dasharray:none;stroke-opacity:1"
         sodipodi:role="line"
         id="tspan1498">CON CHÀN</tspan><tspan
         y="1804.2198"
         x="1243.2716"
         style="font-style:normal;font-variant:normal;font-weight:bold;font-stretch:normal;font-size:55.1434px;line-height:1.25;font-family:ComicSpice;-inkscape-font-specification:'ComicSpice Bold';stroke:#000000;stroke-width:1.7;stroke-dasharray:none;stroke-opacity:1"
         sodipodi:role="line"
         id="tspan2118">LẮM!</tspan></text>
    <text
       id="text4178-0-8-1-5-2"
       y="2258.5332"
       x="1250.2017"
       style="font-style:normal;font-variant:normal;font-weight:normal;font-stretch:normal;line-height:0%;font-family:ComicSpice;-inkscape-font-specification:ComicSpice;text-align:center;letter-spacing:0px;word-spacing:0px;text-anchor:middle;fill:#000000;fill-opacity:1;stroke:none"
       xml:space="preserve"><tspan
         y="2258.5332"
         x="1250.2017"
         style="font-style:normal;font-variant:normal;font-weight:normal;font-stretch:normal;font-size:40.6767px;line-height:1.25;font-family:ComicSpice;-inkscape-font-specification:ComicSpice"
         sodipodi:role="line"
         id="tspan1689">Con chán bị săn, bị</tspan><tspan
         y="2309.3792"
         x="1250.2017"
         style="font-style:normal;font-variant:normal;font-weight:normal;font-stretch:normal;font-size:40.6767px;line-height:1.25;font-family:ComicSpice;-inkscape-font-specification:ComicSpice"
         sodipodi:role="line"
         id="tspan2186">cười chê, và nhiều nhất</tspan><tspan
         y="2360.2249"
         x="1250.2017"
         style="font-style:normal;font-variant:normal;font-weight:normal;font-stretch:normal;font-size:40.6767px;line-height:1.25;font-family:ComicSpice;-inkscape-font-specification:ComicSpice"
         sodipodi:role="line"
         id="tspan2188">con chán không được</tspan><tspan
         y="2411.0708"
         x="1250.2017"
         style="font-style:normal;font-variant:normal;font-weight:normal;font-stretch:normal;font-size:40.6767px;line-height:1.25;font-family:ComicSpice;-inkscape-font-specification:ComicSpice"
         sodipodi:role="line"
         id="tspan2190">kiếm việc làm ổn định</tspan><tspan
         y="2461.9167"
         x="1250.2017"
         style="font-style:normal;font-variant:normal;font-weight:normal;font-stretch:normal;font-size:40.6767px;line-height:1.25;font-family:ComicSpice;-inkscape-font-specification:ComicSpice"
         sodipodi:role="line"
         id="tspan2192">sao chịu học bài mệt</tspan><tspan
         y="2512.7627"
         x="1250.2017"
         style="font-style:normal;font-variant:normal;font-weight:normal;font-stretch:normal;font-size:40.6767px;line-height:1.25;font-family:ComicSpice;-inkscape-font-specification:ComicSpice"
         sodipodi:role="line"
         id="tspan2194">mỏ nhiều năm !</tspan></text>
    <text
       id="text4178-0-5-4-6-9"
       y="1509.5511"
       x="1723.6431"
       style="font-style:normal;font-variant:normal;font-weight:normal;font-stretch:normal;line-height:0%;font-family:ComicSpice;-inkscape-font-specification:ComicSpice;text-align:center;letter-spacing:0px;word-spacing:0px;text-anchor:middle;fill:#000000;fill-opacity:1;stroke:none"
       xml:space="preserve"><tspan
         y="1509.5511"
         x="1723.6431"
         style="font-style:normal;font-variant:normal;font-weight:normal;font-stretch:normal;font-size:40.6767px;line-height:1.25;font-family:ComicSpice;-inkscape-font-specification:ComicSpice"
         sodipodi:role="line"
         id="tspan1827">Những người ở đây</tspan><tspan
         y="1560.397"
         x="1723.6431"
         style="font-style:normal;font-variant:normal;font-weight:normal;font-stretch:normal;font-size:40.6767px;line-height:1.25;font-family:ComicSpice;-inkscape-font-specification:ComicSpice"
         sodipodi:role="line"
         id="tspan2129">đánh gía cao</tspan><tspan
         y="1611.2429"
         x="1723.6431"
         style="font-style:normal;font-variant:normal;font-weight:normal;font-stretch:normal;font-size:40.6767px;line-height:1.25;font-family:ComicSpice;-inkscape-font-specification:ComicSpice"
         sodipodi:role="line"
         id="tspan2131">tài năng của con !</tspan></text>
    <text
       id="text4178-0-5"
       y="2362.6953"
       x="1714.1775"
       style="font-style:normal;font-variant:normal;font-weight:bold;font-stretch:normal;font-size:14.6308px;line-height:0%;font-family:ComicSpice;-inkscape-font-specification:'ComicSpice Bold';text-align:center;letter-spacing:0px;word-spacing:0px;text-anchor:middle;fill:#000000;fill-opacity:1;stroke:none;stroke-width:0.999999"
       xml:space="preserve"><tspan
         y="2362.6953"
         x="1714.1775"
         style="font-style:normal;font-variant:normal;font-weight:bold;font-stretch:normal;font-size:49.5944px;line-height:1.25;font-family:ComicSpice;-inkscape-font-specification:'ComicSpice Bold';stroke-width:0.999999"
         sodipodi:role="line"
         id="tspan4245-6-6-5">Thầy thuốc!</tspan></text>
    <text
       id="text4178-0-5-4"
       y="2448.3254"
       x="1722.2692"
       style="font-style:normal;font-variant:normal;font-weight:normal;font-stretch:normal;font-size:10.4011px;line-height:0%;font-family:ComicSpice;-inkscape-font-specification:ComicSpice;text-align:center;letter-spacing:0px;word-spacing:0px;text-anchor:middle;fill:#000000;fill-opacity:1;stroke:none;stroke-width:1"
       xml:space="preserve"><tspan
         y="2448.3254"
         x="1725.6348"
         style="font-style:normal;font-variant:normal;font-weight:normal;font-stretch:normal;font-size:35.2567px;line-height:1.25;font-family:ComicSpice;-inkscape-font-specification:ComicSpice;stroke-width:1"
         sodipodi:role="line"
         id="tspan1931">Đừng đi qúa xa! </tspan></text>
    <text
       id="text4178-0-5-4-6"
       y="2563.9587"
       x="1727.3307"
       style="font-style:normal;font-variant:normal;font-weight:normal;font-stretch:normal;font-size:10.4011px;line-height:0%;font-family:ComicSpice;-inkscape-font-specification:ComicSpice;text-align:center;letter-spacing:0px;word-spacing:0px;text-anchor:middle;fill:#000000;fill-opacity:1;stroke:none;stroke-width:1"
       xml:space="preserve"><tspan
         y="2563.9587"
         x="1727.3307"
         style="font-style:normal;font-variant:normal;font-weight:normal;font-stretch:normal;font-size:35.2567px;line-height:1.25;font-family:ComicSpice;-inkscape-font-specification:ComicSpice;stroke-width:1"
         sodipodi:role="line"
         id="tspan15177">Vinh Da đã bị </tspan><tspan
         y="2608.0295"
         x="1727.3307"
         style="font-style:normal;font-variant:normal;font-weight:normal;font-stretch:normal;font-size:35.2567px;line-height:1.25;font-family:ComicSpice;-inkscape-font-specification:ComicSpice;stroke-width:1"
         sodipodi:role="line"
         id="tspan1938">tổn thương nặng.</tspan></text>
    <text
       xml:space="preserve"
       style="font-style:normal;font-variant:normal;font-weight:bold;font-stretch:normal;line-height:0%;font-family:ComicSpice;-inkscape-font-specification:'ComicSpice Bold';letter-spacing:3.02325px;word-spacing:0px;fill:#daf9ff;fill-opacity:1;stroke:#00bfff;stroke-width:0.808288;stroke-miterlimit:4;stroke-dasharray:none;stroke-opacity:1;filter:url(#filter4375-4-1-1-1-9-5-8-8-3-3)"
       x="787.65729"
       y="1584.5073"
       id="text4580-6-0-0-3"
       transform="matrix(0.63625061,-0.3004975,0.12503652,1.0615485,234.6135,1589.0183)"><tspan
         sodipodi:role="line"
         id="tspan4582-1-1-0-6"
         x="787.65729"
         y="1584.5073"
         style="font-style:normal;font-variant:normal;font-weight:bold;font-stretch:normal;font-size:70px;line-height:1.25;font-family:ComicSpice;-inkscape-font-specification:'ComicSpice Bold';fill:#daf9ff;fill-opacity:1;stroke:#00bfff;stroke-width:0.808288;stroke-opacity:1">Xíttt</tspan></text>
    <text
       id="text4452"
       y="3037.1692"
       x="1691.4138"
       style="font-style:normal;font-variant:normal;font-weight:normal;font-stretch:normal;font-size:10.4011px;line-height:0%;font-family:ComicSpice;-inkscape-font-specification:ComicSpice;text-align:center;letter-spacing:0px;word-spacing:0px;text-anchor:middle;fill:#000000;fill-opacity:1;stroke:none;stroke-width:1"
       xml:space="preserve"><tspan
         y="3037.1692"
         x="1691.4138"
         style="font-style:normal;font-variant:normal;font-weight:normal;font-stretch:normal;font-size:35.2567px;line-height:1.25;font-family:ComicSpice;-inkscape-font-specification:ComicSpice;stroke-width:1"
         sodipodi:role="line"
         id="tspan4450">Cứu khổ cứu nạn.</tspan></text>
  </g>
</svg>
